<svg width="24" height="24" viewBox="0 0 24 24" fill="none" xmlns="http://www.w3.org/2000/svg">
<path d="M19.0083 4.48485L12.6289 9.19675L13.8152 6.41987L19.0083 4.48485Z" fill="#E17726" stroke="#E17726" stroke-width="0.25" stroke-linecap="round" stroke-linejoin="round"/>
<path d="M4.29346 4.48485L10.6161 9.24073L9.48659 6.41987L4.29346 4.48485Z" fill="#E27625" stroke="#E27625" stroke-width="0.25" stroke-linecap="round" stroke-linejoin="round"/>
<path d="M16.7116 15.4102L15.0142 17.9986L18.6487 18.9975L19.6899 15.4667L16.7116 15.4102Z" fill="#E27625" stroke="#E27625" stroke-width="0.25" stroke-linecap="round" stroke-linejoin="round"/>
<path d="M3.61829 15.4667L4.65312 18.9975L8.28138 17.9986L6.59029 15.4102L3.61829 15.4667Z" fill="#E27625" stroke="#E27625" stroke-width="0.25" stroke-linecap="round" stroke-linejoin="round"/>
<path d="M8.08578 11.0375L7.07617 12.5579L10.6729 12.7213L10.553 8.8575L8.08578 11.0375Z" fill="#E27625" stroke="#E27625" stroke-width="0.25" stroke-linecap="round" stroke-linejoin="round"/>
<path d="M15.216 11.0375L12.7109 8.81351L12.6289 12.7213L16.2256 12.5579L15.216 11.0375Z" fill="#E27625" stroke="#E27625" stroke-width="0.25" stroke-linecap="round" stroke-linejoin="round"/>
<path d="M8.28137 17.9986L10.4583 16.9494L8.58426 15.4919L8.28137 17.9986Z" fill="#E27625" stroke="#E27625" stroke-width="0.25" stroke-linecap="round" stroke-linejoin="round"/>
<path d="M12.8435 16.9494L15.0141 17.9986L14.7176 15.4919L12.8435 16.9494Z" fill="#E27625" stroke="#E27625" stroke-width="0.25" stroke-linecap="round" stroke-linejoin="round"/>
<path d="M15.014 17.9986L12.8434 16.9494L13.0201 18.3567L13.0011 18.9536L15.014 17.9986Z" fill="#D5BFB2" stroke="#D5BFB2" stroke-width="0.25" stroke-linecap="round" stroke-linejoin="round"/>
<path d="M8.28125 17.9986L10.3005 18.9536L10.2878 18.3567L10.4582 16.9494L8.28125 17.9986Z" fill="#D5BFB2" stroke="#D5BFB2" stroke-width="0.25" stroke-linecap="round" stroke-linejoin="round"/>
<path d="M10.3384 14.562L8.53369 14.0343L9.80835 13.45L10.3384 14.562Z" fill="#233447" stroke="#233447" stroke-width="0.25" stroke-linecap="round" stroke-linejoin="round"/>
<path d="M12.9633 14.562L13.4933 13.45L14.7742 14.0343L12.9633 14.562Z" fill="#233447" stroke="#233447" stroke-width="0.25" stroke-linecap="round" stroke-linejoin="round"/>
<path d="M8.28131 17.9986L8.59678 15.4102L6.59021 15.4668L8.28131 17.9986Z" fill="#CC6228" stroke="#CC6228" stroke-width="0.25" stroke-linecap="round" stroke-linejoin="round"/>
<path d="M14.7048 15.4102L15.014 17.9986L16.7114 15.4668L14.7048 15.4102Z" fill="#CC6228" stroke="#CC6228" stroke-width="0.25" stroke-linecap="round" stroke-linejoin="round"/>
<path d="M16.2256 12.5579L12.6289 12.7213L12.9633 14.562L13.4934 13.45L14.7743 14.0343L16.2256 12.5579Z" fill="#CC6228" stroke="#CC6228" stroke-width="0.25" stroke-linecap="round" stroke-linejoin="round"/>
<path d="M8.53365 14.0343L9.80827 13.45L10.3383 14.562L10.6727 12.7213L7.07605 12.5579L8.53365 14.0343Z" fill="#CC6228" stroke="#CC6228" stroke-width="0.25" stroke-linecap="round" stroke-linejoin="round"/>
<path d="M7.07617 12.5579L8.58427 15.4919L8.5338 14.0343L7.07617 12.5579Z" fill="#E27525" stroke="#E27525" stroke-width="0.25" stroke-linecap="round" stroke-linejoin="round"/>
<path d="M14.7743 14.0343L14.7175 15.4919L16.2256 12.5579L14.7743 14.0343Z" fill="#E27525" stroke="#E27525" stroke-width="0.25" stroke-linecap="round" stroke-linejoin="round"/>
<path d="M10.6728 12.7213L10.3384 14.5621L10.7611 16.7358L10.8558 13.871L10.6728 12.7213Z" fill="#E27525" stroke="#E27525" stroke-width="0.25" stroke-linecap="round" stroke-linejoin="round"/>
<path d="M12.6289 12.7213L12.4521 13.8647L12.5405 16.7358L12.9633 14.5621L12.6289 12.7213Z" fill="#E27525" stroke="#E27525" stroke-width="0.25" stroke-linecap="round" stroke-linejoin="round"/>
<path d="M12.9633 14.562L12.5405 16.7358L12.8434 16.9494L14.7175 15.4919L14.7743 14.0343L12.9633 14.562Z" fill="#F5841F" stroke="#F5841F" stroke-width="0.25" stroke-linecap="round" stroke-linejoin="round"/>
<path d="M8.53369 14.0343L8.58421 15.4919L10.4582 16.9494L10.7611 16.7358L10.3384 14.562L8.53369 14.0343Z" fill="#F5841F" stroke="#F5841F" stroke-width="0.25" stroke-linecap="round" stroke-linejoin="round"/>
<path d="M13.0011 18.9536L13.0201 18.3567L12.856 18.2185H10.4456L10.2878 18.3567L10.3005 18.9536L8.28125 17.9986L8.98801 18.5766L10.4203 19.563H12.8749L14.3136 18.5766L15.014 17.9986L13.0011 18.9536Z" fill="#C0AC9D" stroke="#C0AC9D" stroke-width="0.25" stroke-linecap="round" stroke-linejoin="round"/>
<path d="M12.8434 16.9494L12.5405 16.7358H10.7611L10.4582 16.9494L10.2878 18.3567L10.4456 18.2185H12.856L13.0201 18.3567L12.8434 16.9494Z" fill="#161616" stroke="#161616" stroke-width="0.25" stroke-linecap="round" stroke-linejoin="round"/>
<path d="M19.2795 9.50458L19.8159 6.90363L19.0082 4.48485L12.8434 9.03971L15.2159 11.0375L18.5665 12.0113L19.3048 11.1506L18.983 10.9182L19.4941 10.4533L19.1029 10.1517L19.614 9.76218L19.2795 9.50458Z" fill="#763E1A" stroke="#763E1A" stroke-width="0.25" stroke-linecap="round" stroke-linejoin="round"/>
<path d="M3.48572 6.90363L4.02838 9.50458L3.68133 9.76218L4.19875 10.1517L3.80753 10.4533L4.31864 10.9182L3.99683 11.1506L4.7351 12.0113L8.08572 11.0375L10.4582 9.03971L4.2934 4.48485L3.48572 6.90363Z" fill="#763E1A" stroke="#763E1A" stroke-width="0.25" stroke-linecap="round" stroke-linejoin="round"/>
<path d="M18.5666 12.0113L15.216 11.0375L16.2256 12.5579L14.7175 15.4919L16.7115 15.4667H19.6898L18.5666 12.0113Z" fill="#F5841F" stroke="#F5841F" stroke-width="0.25" stroke-linecap="round" stroke-linejoin="round"/>
<path d="M8.08563 11.0375L4.73504 12.0113L3.61816 15.4667H6.59017L8.58412 15.4919L7.07604 12.5579L8.08563 11.0375Z" fill="#F5841F" stroke="#F5841F" stroke-width="0.25" stroke-linecap="round" stroke-linejoin="round"/>
<path d="M12.6289 12.7213L12.8434 9.03971L13.8152 6.41988H9.48657L10.4583 9.03971L10.6728 12.7213L10.7549 13.8772L10.7612 16.7358H12.5406L12.5469 13.8772L12.6289 12.7213Z" fill="#F5841F" stroke="#F5841F" stroke-width="0.25" stroke-linecap="round" stroke-linejoin="round"/>
</svg>
