<svg width="64" height="64" viewBox="0 0 64 64" fill="none" xmlns="http://www.w3.org/2000/svg">
<rect width="8" height="8" fill="#29A329"/>
<rect y="32" width="8" height="8" fill="#29A329"/>
<rect y="16" width="8" height="8" fill="#29A329"/>
<rect y="48" width="8" height="8" fill="#29A329"/>
<rect y="8" width="8" height="8" fill="#5CD65C"/>
<rect y="40" width="8" height="8" fill="#5CD65C"/>
<rect y="24" width="8" height="8" fill="#5CD65C"/>
<rect y="56" width="8" height="8" fill="#5CD65C"/>
<rect x="32" width="8" height="8" fill="#29290A"/>
<rect x="32" y="32" width="8" height="8" fill="#29A329"/>
<rect x="32" y="16" width="8" height="8" fill="#29290A"/>
<rect x="32" y="48" width="8" height="8" fill="#29290A"/>
<rect x="32" y="8" width="8" height="8" fill="#525214"/>
<rect x="32" y="40" width="8" height="8" fill="#525214"/>
<rect x="32" y="24" width="8" height="8" fill="#5CD65C"/>
<rect x="32" y="56" width="8" height="8" fill="#525214"/>
<rect x="16" width="8" height="8" fill="#5CD65C"/>
<rect x="16" y="32" width="8" height="8" fill="#525214"/>
<rect x="16" y="16" width="8" height="8" fill="#5CD65C"/>
<rect x="16" y="48" width="8" height="8" fill="#525214"/>
<rect x="16" y="8" width="8" height="8" fill="#29290A"/>
<rect x="16" y="40" width="8" height="8" fill="#29290A"/>
<rect x="16" y="24" width="8" height="8" fill="#29A329"/>
<rect x="16" y="56" width="8" height="8" fill="#29A329"/>
<rect x="48" width="8" height="8" fill="#5CD65C"/>
<rect x="48" y="32" width="8" height="8" fill="#5CD65C"/>
<rect x="48" y="16" width="8" height="8" fill="#5CD65C"/>
<rect x="48" y="48" width="8" height="8" fill="#5CD65C"/>
<rect x="48" y="8" width="8" height="8" fill="#29A329"/>
<rect x="48" y="40" width="8" height="8" fill="#29A329"/>
<rect x="48" y="24" width="8" height="8" fill="#29A329"/>
<rect x="48" y="56" width="8" height="8" fill="#29A329"/>
<rect x="8" width="8" height="8" fill="#29A329"/>
<rect x="8" y="32" width="8" height="8" fill="#29A329"/>
<rect x="8" y="16" width="8" height="8" fill="#29A329"/>
<rect x="8" y="48" width="8" height="8" fill="#29A329"/>
<rect x="8" y="8" width="8" height="8" fill="#5CD65C"/>
<rect x="8" y="40" width="8" height="8" fill="#5CD65C"/>
<rect x="8" y="24" width="8" height="8" fill="#5CD65C"/>
<rect x="8" y="56" width="8" height="8" fill="#5CD65C"/>
<rect x="40" width="8" height="8" fill="#29A329"/>
<rect x="40" y="32" width="8" height="8" fill="#29A329"/>
<rect x="40" y="16" width="8" height="8" fill="#29290A"/>
<rect x="40" y="48" width="8" height="8" fill="#29290A"/>
<rect x="40" y="8" width="8" height="8" fill="#525214"/>
<rect x="40" y="40" width="8" height="8" fill="#5CD65C"/>
<rect x="40" y="24" width="8" height="8" fill="#525214"/>
<rect x="40" y="56" width="8" height="8" fill="#5CD65C"/>
<rect x="24" width="8" height="8" fill="#525214"/>
<rect x="24" y="32" width="8" height="8" fill="#5CD65C"/>
<rect x="24" y="16" width="8" height="8" fill="#525214"/>
<rect x="24" y="48" width="8" height="8" fill="#525214"/>
<rect x="24" y="8" width="8" height="8" fill="#29290A"/>
<rect x="24" y="40" width="8" height="8" fill="#29290A"/>
<rect x="24" y="24" width="8" height="8" fill="#29A329"/>
<rect x="24" y="56" width="8" height="8" fill="#29290A"/>
<rect x="56" width="8" height="8" fill="#5CD65C"/>
<rect x="56" y="32" width="8" height="8" fill="#5CD65C"/>
<rect x="56" y="16" width="8" height="8" fill="#5CD65C"/>
<rect x="56" y="48" width="8" height="8" fill="#5CD65C"/>
<rect x="56" y="8" width="8" height="8" fill="#29A329"/>
<rect x="56" y="40" width="8" height="8" fill="#29A329"/>
<rect x="56" y="24" width="8" height="8" fill="#29A329"/>
<rect x="56" y="56" width="8" height="8" fill="#29A329"/>
</svg>
