<svg width="1920" height="640" viewBox="0 0 1920 640" fill="none" xmlns="http://www.w3.org/2000/svg">
<g clip-path="url(#clip0_867_2481)">
<rect width="191.933" height="191.933" rx="32" transform="matrix(0.855743 -0.517401 0.855743 0.517401 1350.08 97.0615)" fill="#EE306F"/>
<path fill-rule="evenodd" clip-rule="evenodd" d="M1516.64 64.8103C1506.03 71.2302 1505.38 79.6418 1507.31 88.4146L1516.48 89.453C1514.36 81.2032 1514.29 73.7509 1522.86 68.5678C1532.71 62.6143 1548.03 61.9792 1558.85 66.6948L1534.41 81.4741L1540.63 85.2317L1571.4 66.6265C1570.49 65.9268 1569.52 65.261 1568.48 64.6328C1554.27 56.041 1531.02 56.1207 1516.64 64.8103" fill="white"/>
<path fill-rule="evenodd" clip-rule="evenodd" d="M1561.97 92.2162C1551.49 98.5548 1535.52 97.2628 1513.45 94.5401C1491.38 91.8174 1473.39 90.9617 1460.54 98.7348C1446.16 107.425 1446.03 121.484 1460.24 130.076C1474.45 138.667 1497.7 138.588 1512.08 129.898C1522.68 123.489 1523.34 115.096 1521.42 106.34L1512.24 105.264C1514.36 113.51 1514.43 120.959 1505.86 126.14C1494.94 132.741 1477.29 132.808 1466.51 126.288C1455.72 119.768 1455.83 109.093 1466.75 102.492C1477.23 96.1538 1492.37 97.3926 1515.23 100.167C1538.09 102.942 1555.33 103.747 1568.19 95.9738C1573.43 92.8161 1576.98 88.7787 1578.38 84.3855C1579.78 79.9923 1578.96 75.4461 1576.04 71.3369L1569.14 75.5073C1570.52 78.4255 1570.59 81.5149 1569.33 84.4537C1568.07 87.3925 1565.53 90.0731 1561.97 92.2162" fill="white"/>
<rect width="191.933" height="191.933" rx="32" transform="matrix(0.855743 -0.517401 0.855743 0.517401 795.755 -14.6582)" fill="#EE306F"/>
<path fill-rule="evenodd" clip-rule="evenodd" d="M1007.64 -19.5035C997.159 -13.1649 981.188 -14.4569 959.122 -17.1796C937.057 -19.9023 919.064 -20.758 906.208 -12.9849C891.836 -4.29513 891.704 9.76431 905.914 18.3561C920.124 26.9477 943.378 26.868 957.75 18.1782C968.349 11.7698 969.009 3.37605 967.091 -5.38001L957.912 -6.45601C960.03 1.79067 960.104 9.23938 951.535 14.4206C940.617 21.0217 922.963 21.0878 912.179 14.5681C901.396 8.04838 901.505 -2.62635 912.423 -9.22744C922.906 -15.5659 938.044 -14.3271 960.902 -11.5526C983.761 -8.7781 1001 -7.97266 1013.86 -15.7459C1019.1 -18.9036 1022.65 -22.941 1024.05 -27.3342C1025.45 -31.7274 1024.63 -36.2736 1021.71 -40.3828L1014.81 -36.2124C1016.2 -33.2943 1016.26 -30.2048 1015 -27.266C1013.74 -24.3273 1011.2 -21.6466 1007.64 -19.5036" fill="white"/>
<rect width="191.933" height="191.933" rx="32" transform="matrix(0.855743 -0.517401 0.855743 0.517401 1904.41 208.781)" fill="#EE306F"/>
<rect width="191.933" height="191.933" rx="32" transform="matrix(0.855743 -0.517401 0.855743 0.517401 1534.86 -14.6582)" fill="#181A20"/>
<path fill-rule="evenodd" clip-rule="evenodd" d="M1652.27 -42.2005L1641.6 -18.6391L1655.95 -20.9949L1662.72 -35.8788L1687.34 -39.972L1691.24 -48.6495L1652.27 -42.2005ZM1694.73 -35.5032L1709.08 -37.859L1719.54 -31.5373L1712.77 -16.6534L1730.61 -5.86287L1726.72 2.81445L1712.37 5.17024L1694.52 -5.62033L1669.9 -1.52691L1659.45 -7.8486L1663.34 -16.5261L1687.96 -20.6196L1694.73 -35.5032ZM1726.93 -27.0685L1737.38 -20.7469L1733.49 -12.0692L1723.03 -18.3911L1726.93 -27.0685ZM1740.79 -7.54549L1747.56 -22.4295L1729.71 -33.22L1733.61 -41.8971L1761.91 -24.7849L1751.24 -1.22379L1740.79 -7.54549ZM1711.87 -44.0104L1697.51 -41.6544L1701.41 -50.332L1715.76 -52.6876L1726.22 -46.3659L1722.32 -37.6886L1711.87 -44.0104ZM1730.3 16.0152L1719.85 9.6935L1734.2 7.33755L1738.1 -1.33961L1748.55 4.98208L1744.66 13.6592L1730.3 16.0152ZM1702.1 6.90786L1687.75 9.26357L1677.29 2.94188L1691.65 0.585931L1702.1 6.90786ZM1680.57 -25.0883L1666.22 -22.7324L1670.11 -31.41L1684.47 -33.7655L1680.57 -25.0883ZM1653.17 -14.8436L1649.27 -6.16617L1659.73 0.155598L1645.38 2.51132L1634.92 -3.81037L1638.82 -12.4879L1653.17 -14.8436ZM1652.77 6.98012L1667.12 4.62423L1684.97 15.4147L1709.58 11.3213L1720.04 17.643L1681.07 24.0923L1652.77 6.98012Z" fill="#F0B90B"/>
<rect x="1.71149" width="189.933" height="189.933" rx="31" transform="matrix(0.855743 -0.517401 0.855743 0.517401 1535.1 -13.7727)" stroke="white" stroke-opacity="0.1" stroke-width="2"/>
<rect width="191.933" height="191.933" rx="32" transform="matrix(0.855743 -0.517401 0.855743 0.517401 -312.897 655.658)" fill="#181A20"/>
<rect width="191.933" height="191.933" rx="32" transform="matrix(0.855743 -0.517401 0.855743 0.517401 610.979 543.939)" fill="#0B0A09"/>
<path d="M725.336 530.656C711.838 548.776 730.937 562.731 734.555 572.454C738.216 582.292 729.269 594.351 736.324 596.228C743.378 598.104 752.386 586.061 767.068 581.102C781.577 576.202 811.712 575.345 825.21 557.226C832.087 547.996 831.469 537.929 824.928 529.516C824.227 528.612 822.312 528.351 821.027 528.996C820.228 529.397 819.904 530.05 820.222 530.64C823.443 536.62 823.122 543.344 818.472 549.585C810.795 559.888 793.596 565.841 776.071 565.287C772.091 565.162 768.094 564.696 764.186 563.873C763.111 563.647 762.041 563.402 760.984 563.12C759.925 562.839 758.905 562.527 757.902 562.201C761.429 556.435 765.784 549.952 771.092 542.828C776.295 535.843 781.346 529.675 786.075 524.325C789.275 520.706 792.327 517.46 795.181 514.589C795.388 514.382 795.591 514.177 795.795 513.974C796.229 513.542 797.123 513.368 797.881 513.569L797.895 513.573C798.343 513.693 798.777 513.824 799.219 513.95C802.069 514.765 804.754 515.707 807.251 516.768C808.345 517.231 809.881 516.915 810.278 516.134C811.745 513.248 812.987 510.547 813.985 508.067C817.711 498.828 818.081 492.68 814.222 491.655C810.365 490.628 802.97 494.907 793.973 502.743C791.114 505.234 788.093 508.085 784.973 511.239C784.433 511.785 783.891 512.34 783.347 512.903C780.757 515.579 778.109 518.452 775.434 521.494C770.459 527.15 765.396 533.385 760.466 540.001C755.856 546.191 751.737 552.21 748.191 557.869C735.774 550.457 731.666 538.836 739.343 528.532C743.991 522.293 752.136 517.649 761.73 515.078C762.677 514.825 763.272 514.244 763.238 513.62C763.182 512.619 761.575 511.944 759.98 512.236C745.146 514.963 732.213 521.426 725.336 530.656Z" fill="#FAF1E4"/>
<rect x="1.71149" width="189.933" height="189.933" rx="31" transform="matrix(0.855743 -0.517401 0.855743 0.517401 611.226 544.825)" stroke="white" stroke-opacity="0.1" stroke-width="2"/>
<rect width="191.933" height="191.933" rx="32" transform="matrix(0.855743 -0.517401 0.855743 0.517401 56.6533 432.219)" fill="#0B0A09"/>
<path d="M171.01 418.936C157.512 437.055 176.611 451.01 180.229 460.733C183.89 470.571 174.943 482.63 181.998 484.507C189.051 486.383 198.059 474.34 212.742 469.382C227.251 464.481 257.386 463.625 270.884 445.505C277.761 436.275 277.143 426.208 270.602 417.795C269.9 416.892 267.985 416.63 266.701 417.276C265.902 417.676 265.578 418.329 265.896 418.92C269.117 424.9 268.795 431.623 264.146 437.864C256.469 448.168 239.27 454.121 221.745 453.567C217.765 453.441 213.768 452.975 209.86 452.153C208.785 451.926 207.715 451.682 206.658 451.399C205.598 451.118 204.579 450.806 203.576 450.48C207.103 444.714 211.457 438.232 216.766 431.107C221.969 424.122 227.02 417.955 231.749 412.604C234.949 408.986 238 405.739 240.854 402.869C241.062 402.661 241.265 402.457 241.469 402.254C241.903 401.821 242.796 401.647 243.554 401.849L243.568 401.852C244.017 401.973 244.451 402.104 244.893 402.23C247.743 403.045 250.428 403.986 252.925 405.047C254.018 405.511 255.555 405.194 255.952 404.413C257.419 401.527 258.66 398.826 259.659 396.346C263.385 387.107 263.754 380.96 259.896 379.935C256.039 378.907 248.644 383.186 239.647 391.023C236.788 393.513 233.767 396.364 230.647 399.519C230.107 400.064 229.565 400.619 229.021 401.182C226.431 403.858 223.783 406.731 221.107 409.773C216.133 415.429 211.07 421.664 206.14 428.281C201.53 434.471 197.41 440.489 193.864 446.148C181.447 438.736 177.34 427.115 185.016 416.812C189.665 410.572 197.809 405.928 207.404 403.357C208.351 403.104 208.946 402.524 208.912 401.899C208.856 400.898 207.248 400.223 205.654 400.515C190.82 403.242 177.887 409.705 171.01 418.936Z" fill="#FAF1E4"/>
<rect x="1.71149" width="189.933" height="189.933" rx="31" transform="matrix(0.855743 -0.517401 0.855743 0.517401 56.9002 433.104)" stroke="white" stroke-opacity="0.1" stroke-width="2"/>
<rect width="191.933" height="191.933" rx="32" transform="matrix(0.855743 -0.517401 0.855743 0.517401 1165.31 655.658)" fill="#0B0A09"/>
<path d="M1279.66 642.375C1266.16 660.494 1285.26 674.449 1288.88 684.172C1292.54 694.011 1283.6 706.07 1290.65 707.946C1297.7 709.822 1306.71 697.78 1321.39 692.821C1335.9 687.921 1366.04 687.064 1379.54 668.945C1386.41 659.715 1385.8 649.647 1379.25 641.235C1378.55 640.331 1376.64 640.069 1375.35 640.715C1374.55 641.116 1374.23 641.769 1374.55 642.359C1377.77 648.339 1377.45 655.062 1372.8 661.303C1365.12 671.607 1347.92 677.56 1330.4 677.006C1326.42 676.881 1322.42 676.415 1318.51 675.592C1317.44 675.365 1316.37 675.121 1315.31 674.839C1314.25 674.557 1313.23 674.246 1312.23 673.92C1315.76 668.153 1320.11 661.671 1325.42 654.547C1330.62 647.562 1335.67 641.394 1340.4 636.044C1343.6 632.425 1346.65 629.179 1349.51 626.308C1349.71 626.101 1349.92 625.896 1350.12 625.693C1350.55 625.261 1351.45 625.087 1352.21 625.288L1352.22 625.292C1352.67 625.412 1353.1 625.543 1353.55 625.669C1356.4 626.484 1359.08 627.426 1361.58 628.486C1362.67 628.95 1364.21 628.634 1364.6 627.853C1366.07 624.966 1367.31 622.266 1368.31 619.786C1372.04 610.547 1372.41 604.399 1368.55 603.374C1364.69 602.347 1357.3 606.626 1348.3 614.462C1345.44 616.953 1342.42 619.804 1339.3 622.958C1338.76 623.504 1338.22 624.059 1337.67 624.621C1335.08 627.298 1332.44 630.171 1329.76 633.212C1324.78 638.869 1319.72 645.103 1314.79 651.72C1310.18 657.91 1306.06 663.928 1302.52 669.588C1290.1 662.176 1285.99 650.555 1293.67 640.251C1298.32 634.011 1306.46 629.368 1316.06 626.797C1317 626.544 1317.6 625.963 1317.56 625.338C1317.51 624.338 1315.9 623.663 1314.31 623.955C1299.47 626.682 1286.54 633.145 1279.66 642.375Z" fill="#FAF1E4"/>
<rect x="1.71149" width="189.933" height="189.933" rx="31" transform="matrix(0.855743 -0.517401 0.855743 0.517401 1165.55 656.544)" stroke="white" stroke-opacity="0.1" stroke-width="2"/>
<rect width="191.933" height="191.933" rx="32" transform="matrix(0.855743 -0.517401 0.855743 0.517401 -312.898 208.781)" fill="#8247E5"/>
<rect width="191.933" height="191.933" rx="32" transform="matrix(0.855743 -0.517401 0.855743 0.517401 795.755 432.219)" fill="#8247E5"/>
<path d="M968.136 409.204C965.58 409.644 963.47 410.92 962.507 412.607L956.913 425.106L952.799 433.395L947.439 445.752C946.712 447.297 944.601 448.573 941.811 449.155L925.787 451.661C923.231 452.101 920.231 451.705 918.175 450.462L906.752 443.555C904.924 442.45 904.035 440.778 904.769 438.953L909.142 429.403C909.869 427.858 911.98 426.581 914.77 426L930.794 423.494C933.35 423.054 936.35 423.45 938.406 424.693L945.945 429.251L949.831 420.824L942.064 416.128C940.236 415.023 937.47 414.485 934.452 414.928L904.953 419.78C902.397 420.22 900.286 421.496 899.324 423.183L891.059 441.441C890.097 443.128 890.987 444.8 892.814 445.905L914.289 458.889C916.117 459.994 918.882 460.532 921.901 460.088L951.635 455.095C954.19 454.655 956.301 453.379 957.263 451.692L962.851 439.473L966.737 431.046L972.325 418.827C973.053 417.282 975.163 416.005 977.953 415.424L993.749 412.78C996.305 412.34 999.305 412.736 1001.36 413.979L1012.78 420.885C1014.61 421.99 1015.5 423.662 1014.77 425.488L1010.63 434.896C1009.9 436.441 1007.79 437.717 1005 438.299L989.204 440.943C986.649 441.383 983.649 440.987 981.593 439.744L974.282 435.324L970.396 443.751L977.935 448.309C979.763 449.414 982.529 449.952 985.547 449.509L1015.28 444.515C1017.84 444.075 1019.95 442.799 1020.91 441.112L1029.17 423.134C1029.9 421.589 1029.24 419.775 1027.18 418.532L1005.48 405.41C1003.65 404.305 1000.89 403.767 997.869 404.211L968.136 409.204Z" fill="white"/>
<rect width="191.933" height="191.933" rx="32" transform="matrix(0.855743 -0.517401 0.855743 0.517401 241.429 320.5)" fill="#8247E5"/>
<path d="M413.81 297.485C411.254 297.925 409.143 299.202 408.181 300.888L402.587 313.387L398.473 321.676L393.113 334.033C392.385 335.578 390.275 336.855 387.485 337.437L371.46 339.942C368.905 340.382 365.905 339.986 363.849 338.743L352.426 331.837C350.598 330.732 349.709 329.059 350.442 327.234L354.815 317.684C355.543 316.139 357.654 314.863 360.444 314.281L376.468 311.775C379.024 311.335 382.024 311.731 384.08 312.974L391.619 317.532L395.505 309.105L387.737 304.409C385.91 303.304 383.144 302.766 380.125 303.21L350.626 308.061C348.071 308.501 345.96 309.778 344.998 311.464L336.733 329.722C335.771 331.409 336.66 333.081 338.488 334.186L359.963 347.17C361.791 348.275 364.556 348.813 367.575 348.369L397.308 343.376C399.864 342.936 401.974 341.66 402.937 339.973L408.525 327.754L412.411 319.327L417.999 307.108C418.726 305.563 420.837 304.287 423.627 303.705L439.423 301.061C441.978 300.621 444.979 301.017 447.035 302.26L458.458 309.166C460.285 310.272 461.175 311.944 460.441 313.769L456.302 323.177C455.575 324.723 453.464 325.999 450.674 326.581L434.878 329.225C432.323 329.665 429.322 329.269 427.266 328.025L419.956 323.605L416.07 332.032L423.609 336.591C425.437 337.696 428.202 338.234 431.221 337.79L460.955 332.796C463.51 332.356 465.621 331.08 466.583 329.393L474.842 311.416C475.57 309.871 474.915 308.057 472.858 306.813L451.155 293.691C449.327 292.586 446.562 292.048 443.543 292.492L413.81 297.485Z" fill="white"/>
<rect width="191.933" height="191.933" rx="32" transform="matrix(0.855743 -0.517401 0.855743 0.517401 1350.08 543.939)" fill="#8247E5"/>
<path d="M1522.46 520.925C1519.91 521.365 1517.8 522.641 1516.83 524.328L1511.24 536.827L1507.13 545.116L1501.77 557.473C1501.04 559.018 1498.93 560.294 1496.14 560.876L1480.11 563.382C1477.56 563.822 1474.56 563.426 1472.5 562.183L1461.08 555.276C1459.25 554.171 1458.36 552.499 1459.1 550.674L1463.47 541.123C1464.2 539.578 1466.31 538.302 1469.1 537.72L1485.12 535.214C1487.68 534.774 1490.68 535.17 1492.73 536.414L1500.27 540.972L1504.16 532.545L1496.39 527.848C1494.56 526.743 1491.8 526.205 1488.78 526.649L1459.28 531.501C1456.72 531.941 1454.61 533.217 1453.65 534.904L1445.39 553.161C1444.42 554.848 1445.31 556.521 1447.14 557.626L1468.62 570.61C1470.44 571.715 1473.21 572.253 1476.23 571.809L1505.96 566.816C1508.52 566.375 1510.63 565.099 1511.59 563.412L1517.18 551.193L1521.06 542.766L1526.65 530.547C1527.38 529.002 1529.49 527.726 1532.28 527.144L1548.08 524.5C1550.63 524.06 1553.63 524.456 1555.69 525.699L1567.11 532.606C1568.94 533.711 1569.83 535.383 1569.09 537.208L1564.96 546.617C1564.23 548.162 1562.12 549.438 1559.33 550.02L1543.53 552.664C1540.98 553.104 1537.98 552.708 1535.92 551.465L1528.61 547.045L1524.72 555.472L1532.26 560.03C1534.09 561.135 1536.86 561.673 1539.87 561.229L1569.61 556.236C1572.16 555.796 1574.27 554.52 1575.24 552.833L1583.5 534.855C1584.22 533.31 1583.57 531.496 1581.51 530.253L1559.81 517.131C1557.98 516.025 1555.21 515.488 1552.2 515.931L1522.46 520.925Z" fill="white"/>
<rect width="191.933" height="191.933" rx="32" transform="matrix(0.855743 -0.517401 0.855743 0.517401 -128.122 97.0615)" fill="#008CFF"/>
<path d="M77.9517 86.2244C71.9612 87.1782 67.0564 89.3746 62.6886 91.8473C59.022 93.9199 51.45 95.7337 44.9102 91.7795C42.5748 90.3431 41.2559 88.4145 41.2345 86.406C41.2141 84.3976 42.4929 82.4684 44.7985 81.0306C48.8782 78.3836 52.5107 75.4181 54.0984 71.8022C55.5171 68.5511 55.4939 65.1266 54.0317 61.8722C52.5689 58.618 49.7179 55.6489 45.7658 53.2625C41.8132 50.8763 36.8981 49.1571 31.5134 48.2779C26.1292 47.3983 20.4655 47.3893 15.0906 48.252C9.71567 49.1147 4.81914 50.8185 0.892543 53.1924C-3.03401 55.5663 -5.85282 58.5269 -7.28002 61.7765C-8.70716 65.0261 -8.69304 68.4507 -7.23898 71.7062C-5.78493 74.9618 -2.94209 77.9339 1.00444 80.3237C5.36756 82.9618 10.924 84.4577 16.6274 85.5162C21.4079 86.4117 28.0618 89.419 25.6706 94.8431C24.7663 96.7796 22.641 98.4203 19.7506 99.4133C16.8595 100.406 13.4338 100.672 10.2077 100.154C4.40649 99.3351 -1.68993 98.9348 -7.57168 99.8831C-12.9479 100.747 -17.8454 102.452 -21.7719 104.827C-25.6984 107.203 -28.5156 110.165 -29.9407 113.416C-31.3656 116.667 -31.3482 120.093 -29.8899 123.349C-28.4316 126.605 -25.5842 129.577 -21.6336 131.965C-17.6824 134.354 -12.7676 136.076 -7.38233 136.957C-1.99704 137.839 3.66872 137.85 9.04563 136.988C14.423 136.127 19.3223 134.423 23.251 132.049C27.1797 129.675 29.9999 126.714 31.4284 123.463C32.9962 119.871 32.3345 116.221 30.9797 112.714C29.826 109.806 30.6837 104.816 39.7637 103.364C42.9952 102.88 46.4193 103.182 49.3016 104.205C52.1838 105.228 54.2939 106.892 55.1801 108.838C56.9313 112.286 59.4148 115.64 63.7779 118.278C67.7306 120.668 72.6486 122.39 78.0366 123.272C83.4246 124.154 89.0931 124.164 94.4728 123.302C99.8521 122.439 104.753 120.734 108.684 118.359C112.614 115.983 115.435 113.02 116.863 109.768C118.291 106.516 118.276 103.088 116.818 99.8302C115.362 96.5724 112.515 93.5983 108.563 91.2075C104.612 88.8168 99.6959 87.0931 94.3084 86.2103C88.9209 85.3269 83.2524 85.315 77.8721 86.1763L77.9517 86.2244Z" fill="white"/>
<rect width="191.933" height="191.933" rx="32" transform="matrix(0.855743 -0.517401 0.855743 0.517401 980.53 320.5)" fill="#008CFF"/>
<path d="M1186.6 309.664C1180.61 310.618 1175.71 312.814 1171.34 315.287C1167.67 317.359 1160.1 319.173 1153.56 315.219C1151.23 313.783 1149.91 311.854 1149.89 309.845C1149.87 307.837 1151.15 305.908 1153.45 304.47C1157.53 301.823 1161.16 298.858 1162.75 295.242C1164.17 291.991 1164.15 288.566 1162.68 285.312C1161.22 282.057 1158.37 279.088 1154.42 276.702C1150.47 274.316 1145.55 272.597 1140.17 271.717C1134.78 270.838 1129.12 270.829 1123.74 271.691C1118.37 272.554 1113.47 274.258 1109.54 276.632C1105.62 279.006 1102.8 281.966 1101.37 285.216C1099.95 288.466 1099.96 291.89 1101.41 295.146C1102.87 298.401 1105.71 301.373 1109.66 303.763C1114.02 306.401 1119.58 307.897 1125.28 308.956C1130.06 309.851 1136.71 312.858 1134.32 318.283C1133.42 320.219 1131.29 321.86 1128.4 322.853C1125.51 323.846 1122.09 324.112 1118.86 323.594C1113.06 322.775 1106.96 322.374 1101.08 323.323C1095.7 324.186 1090.81 325.891 1086.88 328.267C1082.95 330.642 1080.14 333.604 1078.71 336.855C1077.29 340.107 1077.3 343.532 1078.76 346.788C1080.22 350.044 1083.07 353.016 1087.02 355.405C1090.97 357.794 1095.88 359.515 1101.27 360.397C1106.66 361.279 1112.32 361.289 1117.7 360.427C1123.08 359.566 1127.97 357.863 1131.9 355.489C1135.83 353.114 1138.65 350.153 1140.08 346.903C1141.65 343.31 1140.99 339.66 1139.63 336.153C1138.48 333.245 1139.34 328.256 1148.42 326.804C1151.65 326.319 1155.07 326.621 1157.95 327.644C1160.84 328.668 1162.95 330.331 1163.83 332.278C1165.58 335.726 1168.07 339.079 1172.43 341.717C1176.38 344.107 1181.3 345.829 1186.69 346.711C1192.08 347.593 1197.75 347.603 1203.13 346.741C1208.5 345.878 1213.41 344.174 1217.34 341.798C1221.27 339.423 1224.09 336.46 1225.51 333.207C1226.94 329.955 1226.93 326.528 1225.47 323.27C1224.01 320.012 1221.17 317.038 1217.22 314.647C1213.26 312.256 1208.35 310.533 1202.96 309.65C1197.57 308.766 1191.9 308.754 1186.52 309.616L1186.6 309.664Z" fill="white"/>
<rect width="191.933" height="191.933" rx="32" transform="matrix(0.855743 -0.517401 0.855743 0.517401 426.204 208.781)" fill="#008CFF"/>
<path d="M632.278 197.945C626.287 198.899 621.383 201.095 617.015 203.568C613.348 205.641 605.776 207.454 599.236 203.5C596.901 202.064 595.582 200.135 595.561 198.127C595.54 196.118 596.819 194.189 599.125 192.751C603.204 190.104 606.837 187.139 608.425 183.523C609.843 180.272 609.82 176.847 608.358 173.593C606.895 170.339 604.044 167.37 600.092 164.983C596.139 162.597 591.224 160.878 585.84 159.999C580.455 159.119 574.792 159.11 569.417 159.973C564.042 160.835 559.145 162.539 555.219 164.913C551.292 167.287 548.473 170.248 547.046 173.497C545.619 176.747 545.633 180.171 547.087 183.427C548.541 186.683 551.384 189.655 555.331 192.044C559.694 194.682 565.25 196.178 570.954 197.237C575.734 198.132 582.388 201.14 579.997 206.564C579.092 208.5 576.967 210.141 574.077 211.134C571.186 212.127 567.76 212.393 564.534 211.875C558.733 211.056 552.636 210.656 546.754 211.604C541.378 212.467 536.481 214.172 532.554 216.548C528.628 218.923 525.811 221.886 524.386 225.137C522.961 228.388 522.978 231.814 524.436 235.07C525.895 238.326 528.742 241.297 532.693 243.686C536.644 246.075 541.559 247.796 546.944 248.678C552.329 249.56 557.995 249.57 563.372 248.709C568.749 247.847 573.648 246.144 577.577 243.77C581.506 241.396 584.326 238.435 585.755 235.184C587.322 231.592 586.661 227.942 585.306 224.434C584.152 221.526 585.01 216.537 594.09 215.085C597.321 214.601 600.745 214.902 603.628 215.925C606.51 216.949 608.62 218.612 609.506 220.559C611.257 224.007 613.741 227.361 618.104 229.999C622.057 232.389 626.975 234.111 632.363 234.993C637.751 235.874 643.419 235.885 648.799 235.022C654.178 234.16 659.08 232.455 663.01 230.079C666.94 227.704 669.761 224.741 671.189 221.489C672.617 218.237 672.602 214.809 671.145 211.551C669.688 208.293 666.841 205.319 662.89 202.928C658.939 200.537 654.022 198.814 648.635 197.931C643.247 197.048 637.579 197.036 632.198 197.897L632.278 197.945Z" fill="white"/>
<rect width="191.933" height="191.933" rx="32" transform="matrix(0.855743 -0.517401 0.855743 0.517401 1534.86 432.219)" fill="#008CFF"/>
<path d="M1740.93 421.383C1734.94 422.336 1730.04 424.533 1725.67 427.006C1722 429.078 1714.43 430.892 1707.89 426.938C1705.55 425.501 1704.24 423.573 1704.21 421.564C1704.19 419.556 1705.47 417.627 1707.78 416.189C1711.86 413.542 1715.49 410.576 1717.08 406.96C1718.5 403.709 1718.47 400.285 1717.01 397.03C1715.55 393.776 1712.7 390.807 1708.75 388.421C1704.79 386.035 1699.88 384.315 1694.49 383.436C1689.11 382.556 1683.44 382.547 1678.07 383.41C1672.7 384.273 1667.8 385.977 1663.87 388.351C1659.95 390.724 1657.13 393.685 1655.7 396.935C1654.27 400.184 1654.29 403.609 1655.74 406.864C1657.19 410.12 1660.04 413.092 1663.98 415.482C1668.35 418.12 1673.9 419.616 1679.61 420.674C1684.39 421.57 1691.04 424.577 1688.65 430.001C1687.75 431.938 1685.62 433.578 1682.73 434.572C1679.84 435.564 1676.41 435.83 1673.19 435.313C1667.39 434.493 1661.29 434.093 1655.41 435.041C1650.03 435.905 1645.13 437.61 1641.21 439.985C1637.28 442.361 1634.46 445.323 1633.04 448.574C1631.61 451.825 1631.63 455.251 1633.09 458.507C1634.55 461.763 1637.4 464.735 1641.35 467.123C1645.3 469.512 1650.21 471.234 1655.6 472.116C1660.98 472.997 1666.65 473.008 1672.03 472.146C1677.4 471.285 1682.3 469.581 1686.23 467.207C1690.16 464.833 1692.98 461.872 1694.41 458.622C1695.98 455.029 1695.31 451.379 1693.96 447.872C1692.81 444.964 1693.66 439.974 1702.74 438.522C1705.97 438.038 1709.4 438.34 1712.28 439.363C1715.16 440.386 1717.27 442.05 1718.16 443.996C1719.91 447.444 1722.39 450.798 1726.76 453.436C1730.71 455.826 1735.63 457.548 1741.02 458.43C1746.4 459.312 1752.07 459.322 1757.45 458.46C1762.83 457.597 1767.73 455.893 1771.66 453.517C1775.59 451.141 1778.41 448.179 1779.84 444.926C1781.27 441.674 1781.26 438.246 1779.8 434.988C1778.34 431.731 1775.49 428.757 1771.54 426.366C1767.59 423.975 1762.68 422.251 1757.29 421.369C1751.9 420.485 1746.23 420.473 1740.85 421.335L1740.93 421.383Z" fill="white"/>
<g clip-path="url(#clip1_867_2481)">
<rect width="191.933" height="191.933" rx="32" transform="matrix(0.855743 -0.517401 0.855743 0.517401 56.6533 -14.6582)" fill="black"/>
<path d="M293.59 -29.071L294.467 -9.32929C294.486 -8.90033 294.359 -8.4721 294.093 -8.07138C293.827 -7.67066 293.428 -7.30594 292.922 -7.00009L217.61 38.5349C217.251 38.7522 216.796 38.9022 216.302 38.9667C215.807 39.0312 215.295 39.0072 214.827 38.8977C214.36 38.7883 213.958 38.5981 213.67 38.3506C213.383 38.103 213.222 37.8089 213.209 37.5044L212.343 17.7555C212.325 17.3277 212.451 16.9006 212.716 16.5009C212.98 16.101 213.377 15.737 213.881 15.4312L289.188 -30.1013C289.548 -30.3185 290.002 -30.4685 290.497 -30.5332C290.991 -30.5974 291.503 -30.5733 291.971 -30.4643C292.439 -30.3546 292.841 -30.1645 293.128 -29.9169C293.416 -29.6694 293.576 -29.3753 293.59 -29.071ZM243.944 -39.8766C243.235 -39.888 242.527 -39.8108 241.864 -39.6501C241.201 -39.4893 240.598 -39.2483 240.092 -38.9421L164.781 6.59293C164.421 6.8102 164.173 7.08518 164.066 7.38411C163.96 7.68305 163.999 7.99285 164.18 8.27549C164.362 8.55818 164.676 8.80138 165.086 8.97523C165.495 9.14902 165.981 9.24594 166.485 9.25406L199.148 9.77736C199.856 9.78869 200.562 9.71202 201.223 9.55218C201.884 9.39223 202.487 9.15255 202.992 8.84774L278.3 -36.6847C278.659 -36.902 278.907 -37.1769 279.014 -37.476C279.12 -37.7747 279.081 -38.0845 278.9 -38.3675C278.719 -38.65 278.404 -38.8932 277.995 -39.067C277.585 -39.2408 277.099 -39.3378 276.596 -39.3461L243.944 -39.8766ZM153.892 0.00945507L229.204 -45.5255C229.71 -45.8314 230.109 -46.1961 230.374 -46.5968C230.64 -46.9975 230.768 -47.4258 230.749 -47.8547L229.872 -67.5964C229.858 -67.9008 229.698 -68.1948 229.41 -68.4424C229.123 -68.6899 228.72 -68.8801 228.253 -68.9898C227.785 -69.0988 227.273 -69.1228 226.779 -69.0586C226.284 -68.994 225.829 -68.8439 225.47 -68.6267L150.163 -23.0942C149.659 -22.7884 149.262 -22.4244 148.998 -22.0246C148.733 -21.6248 148.607 -21.1978 148.625 -20.7699L149.495 -1.02352C149.508 -0.719321 149.668 -0.425436 149.955 -0.178101C150.242 0.069291 150.644 0.259508 151.111 0.369185C151.577 0.478861 152.089 0.503195 152.583 0.439302C153.077 0.375407 153.532 0.225992 153.892 0.00945507Z" fill="url(#paint0_linear_867_2481)"/>
</g>
<rect x="1.71149" width="189.933" height="189.933" rx="31" transform="matrix(0.855743 -0.517401 0.855743 0.517401 56.9002 -13.7727)" stroke="white" stroke-opacity="0.1" stroke-width="2"/>
<rect width="191.933" height="191.933" rx="32" transform="matrix(0.855743 -0.517401 0.855743 0.517401 1165.31 208.781)" fill="black"/>
<path d="M1402.24 194.368L1403.12 214.11C1403.14 214.539 1403.01 214.967 1402.75 215.368C1402.48 215.769 1402.08 216.134 1401.58 216.439L1326.26 261.974C1325.9 262.192 1325.45 262.342 1324.96 262.406C1324.46 262.471 1323.95 262.447 1323.48 262.337C1323.01 262.228 1322.61 262.038 1322.32 261.79C1322.04 261.542 1321.88 261.248 1321.86 260.944L1321 241.195C1320.98 240.767 1321.1 240.34 1321.37 239.94C1321.63 239.54 1322.03 239.176 1322.53 238.871L1397.84 193.338C1398.2 193.121 1398.66 192.971 1399.15 192.906C1399.64 192.842 1400.16 192.866 1400.62 192.975C1401.09 193.085 1401.49 193.275 1401.78 193.523C1402.07 193.77 1402.23 194.064 1402.24 194.368ZM1352.6 183.563C1351.89 183.551 1351.18 183.629 1350.52 183.789C1349.85 183.95 1349.25 184.191 1348.75 184.497L1273.43 230.032C1273.07 230.25 1272.83 230.525 1272.72 230.824C1272.61 231.122 1272.65 231.432 1272.83 231.715C1273.01 231.998 1273.33 232.241 1273.74 232.415C1274.15 232.588 1274.63 232.685 1275.14 232.694L1307.8 233.217C1308.51 233.228 1309.22 233.151 1309.88 232.992C1310.54 232.832 1311.14 232.592 1311.65 232.287L1386.95 186.755C1387.31 186.537 1387.56 186.263 1387.67 185.963C1387.77 185.665 1387.73 185.355 1387.55 185.072C1387.37 184.789 1387.06 184.546 1386.65 184.372C1386.24 184.199 1385.75 184.102 1385.25 184.093L1352.6 183.563ZM1262.55 223.449L1337.86 177.914C1338.36 177.608 1338.76 177.243 1339.03 176.843C1339.29 176.442 1339.42 176.014 1339.4 175.585L1338.52 155.843C1338.51 155.539 1338.35 155.245 1338.06 154.997C1337.78 154.75 1337.37 154.559 1336.91 154.45C1336.44 154.341 1335.93 154.317 1335.43 154.381C1334.94 154.445 1334.48 154.596 1334.12 154.813L1258.82 200.345C1258.31 200.651 1257.92 201.015 1257.65 201.415C1257.39 201.815 1257.26 202.242 1257.28 202.67L1258.15 222.416C1258.16 222.72 1258.32 223.014 1258.61 223.261C1258.9 223.509 1259.3 223.699 1259.76 223.809C1260.23 223.918 1260.74 223.943 1261.24 223.879C1261.73 223.815 1262.19 223.665 1262.55 223.449Z" fill="url(#paint1_linear_867_2481)"/>
<rect x="1.71149" width="189.933" height="189.933" rx="31" transform="matrix(0.855743 -0.517401 0.855743 0.517401 1165.55 209.667)" stroke="white" stroke-opacity="0.1" stroke-width="2"/>
<g clip-path="url(#clip2_867_2481)">
<rect width="191.933" height="191.933" rx="32" transform="matrix(0.855743 -0.517401 0.855743 0.517401 610.979 97.0615)" fill="black"/>
<path d="M847.916 82.6487L848.793 102.39C848.812 102.819 848.685 103.248 848.419 103.648C848.153 104.049 847.754 104.414 847.248 104.72L771.936 150.255C771.577 150.472 771.122 150.622 770.628 150.686C770.133 150.751 769.621 150.727 769.154 150.617C768.686 150.508 768.284 150.318 767.996 150.07C767.709 149.823 767.548 149.529 767.535 149.224L766.67 129.475C766.651 129.047 766.778 128.62 767.042 128.221C767.307 127.821 767.703 127.457 768.207 127.151L843.514 81.6185C843.874 81.4012 844.329 81.2512 844.823 81.1866C845.317 81.1223 845.83 81.1464 846.298 81.2554C846.765 81.3651 847.167 81.5552 847.455 81.8028C847.742 82.0504 847.902 82.3444 847.916 82.6487ZM798.271 71.8432C797.561 71.8318 796.853 71.9089 796.19 72.0696C795.527 72.2305 794.924 72.4715 794.418 72.7777L719.107 118.313C718.747 118.53 718.499 118.805 718.393 119.104C718.286 119.403 718.326 119.713 718.507 119.995C718.688 120.278 719.002 120.521 719.412 120.695C719.821 120.869 720.307 120.966 720.811 120.974L753.474 121.497C754.182 121.508 754.888 121.432 755.549 121.272C756.211 121.112 756.813 120.872 757.318 120.567L832.626 75.035C832.985 74.8177 833.233 74.5428 833.34 74.2437C833.446 73.945 833.407 73.6352 833.226 73.3522C833.045 73.0697 832.73 72.8265 832.321 72.6527C831.912 72.4789 831.425 72.3819 830.922 72.3736L798.271 71.8432ZM708.218 111.729L783.53 66.1942C784.036 65.8883 784.435 65.5236 784.701 65.1229C784.967 64.7222 785.094 64.294 785.075 63.865L784.198 44.1233C784.184 43.8189 784.024 43.5249 783.736 43.2774C783.449 43.0298 783.047 42.8396 782.579 42.73C782.111 42.6209 781.599 42.5969 781.105 42.6611C780.61 42.7257 780.155 42.8758 779.796 43.093L704.489 88.6255C703.985 88.9313 703.588 89.2953 703.324 89.6951C703.059 90.0949 702.933 90.5219 702.951 90.9498L703.821 110.696C703.834 111 703.994 111.294 704.281 111.542C704.568 111.789 704.97 111.979 705.437 112.089C705.904 112.199 706.415 112.223 706.909 112.159C707.404 112.095 707.858 111.946 708.218 111.729Z" fill="url(#paint2_linear_867_2481)"/>
</g>
<rect x="1.71149" width="189.933" height="189.933" rx="31" transform="matrix(0.855743 -0.517401 0.855743 0.517401 611.226 97.947)" stroke="white" stroke-opacity="0.1" stroke-width="2"/>
<rect width="191.933" height="191.933" rx="32" transform="matrix(0.855743 -0.517401 0.855743 0.517401 1719.63 320.5)" fill="black"/>
<path d="M1956.57 306.087L1957.45 325.829C1957.47 326.258 1957.34 326.686 1957.07 327.087C1956.81 327.488 1956.41 327.852 1955.9 328.158L1880.59 373.693C1880.23 373.91 1879.78 374.06 1879.28 374.125C1878.79 374.189 1878.27 374.165 1877.81 374.056C1877.34 373.946 1876.94 373.756 1876.65 373.509C1876.36 373.261 1876.2 372.967 1876.19 372.663L1875.32 352.914C1875.3 352.486 1875.43 352.059 1875.7 351.659C1875.96 351.259 1876.36 350.895 1876.86 350.589L1952.17 305.057C1952.53 304.84 1952.98 304.69 1953.48 304.625C1953.97 304.561 1954.48 304.585 1954.95 304.694C1955.42 304.804 1955.82 304.994 1956.11 305.241C1956.4 305.489 1956.56 305.783 1956.57 306.087ZM1906.92 295.282C1906.21 295.27 1905.51 295.347 1904.84 295.508C1904.18 295.669 1903.58 295.91 1903.07 296.216L1827.76 341.751C1827.4 341.968 1827.15 342.243 1827.05 342.542C1826.94 342.841 1826.98 343.151 1827.16 343.434C1827.34 343.716 1827.66 343.96 1828.07 344.133C1828.47 344.307 1828.96 344.404 1829.46 344.412L1862.13 344.936C1862.84 344.947 1863.54 344.87 1864.2 344.71C1864.86 344.55 1865.47 344.311 1865.97 344.006L1941.28 298.473C1941.64 298.256 1941.89 297.981 1941.99 297.682C1942.1 297.383 1942.06 297.074 1941.88 296.791C1941.7 296.508 1941.38 296.265 1940.97 296.091C1940.56 295.917 1940.08 295.82 1939.58 295.812L1906.92 295.282ZM1816.87 335.168L1892.18 289.633C1892.69 289.327 1893.09 288.962 1893.35 288.561C1893.62 288.161 1893.75 287.732 1893.73 287.303L1892.85 267.562C1892.84 267.257 1892.68 266.963 1892.39 266.716C1892.1 266.468 1891.7 266.278 1891.23 266.168C1890.76 266.059 1890.25 266.035 1889.76 266.1C1889.26 266.164 1888.81 266.314 1888.45 266.532L1813.14 312.064C1812.64 312.37 1812.24 312.734 1811.98 313.134C1811.71 313.533 1811.59 313.96 1811.6 314.388L1812.47 334.135C1812.49 334.439 1812.65 334.733 1812.93 334.98C1813.22 335.227 1813.62 335.418 1814.09 335.527C1814.56 335.637 1815.07 335.661 1815.56 335.598C1816.06 335.534 1816.51 335.384 1816.87 335.168Z" fill="url(#paint3_linear_867_2481)"/>
<rect x="1.71149" width="189.933" height="189.933" rx="31" transform="matrix(0.855743 -0.517401 0.855743 0.517401 1719.88 321.386)" stroke="white" stroke-opacity="0.1" stroke-width="2"/>
<rect width="191.933" height="191.933" rx="32" transform="matrix(0.855743 -0.517401 0.855743 0.517401 426.204 655.658)" fill="#627EEA"/>
<path d="M540.287 625.341L541.9 627.13L608.224 667.231L609.568 667.23L622.156 637.613L540.287 625.341Z" fill="#C1CCF7"/>
<path d="M540.287 625.341L560.583 674.841L609.568 667.229L577.376 647.766L540.287 625.341Z" fill="white"/>
<path d="M609.568 667.229L622.156 637.613L577.376 647.766L609.568 667.229Z" fill="#8198EE"/>
<rect width="191.933" height="191.933" rx="32" transform="matrix(0.855743 -0.517401 0.855743 0.517401 -128.122 543.939)" fill="#627EEA"/>
<path d="M-14.039 513.622L-12.4261 515.411L53.8975 555.512L55.2418 555.511L67.8299 525.894L-14.039 513.622Z" fill="#C1CCF7"/>
<path d="M-14.0393 513.622L6.25669 563.122L55.2414 555.511L23.0498 536.047L-14.0393 513.622Z" fill="white"/>
<path d="M61.0707 559.035L61.1539 559.544L84.7794 573.829L86.2658 574.269L73.6871 529.413L61.0707 559.035Z" fill="#C1CCF7"/>
<path d="M86.2652 574.269L61.07 559.035L12.0947 566.652L86.2652 574.269Z" fill="white"/>
<path d="M55.2414 555.511L67.8296 525.894L23.0498 536.047L55.2414 555.511Z" fill="#8198EE"/>
<path d="M6.25642 563.123L55.2411 555.511L23.0495 536.048L6.25642 563.123Z" fill="#C1CCF7"/>
<g clip-path="url(#clip3_867_2481)">
<path d="M590.449 -113.964L426.204 -14.6582L590.449 84.6479L754.694 -14.6582L590.449 -113.964Z" fill="black"/>
<path d="M519.984 -9.75665L524.913 1.38329L538.409 -6.77649L533.469 -17.9096L519.984 -9.75665Z" fill="#1EDADC"/>
<path d="M540.552 -5.48009L527.057 2.67969L545.481 5.65984L558.966 -2.49315L540.552 -5.48009Z" fill="#1EDADC"/>
<path d="M605.113 4.98864L583.32 1.45183L573.26 -0.17741L559.775 7.97559L599.993 14.4925L613.477 6.33955L605.113 4.98864Z" fill="#1EDADC"/>
<path d="M615.183 -0.449536L617.867 5.62618L618.103 6.13531L617.485 6.50868L610.12 10.9619L612.141 15.5102L625.625 7.35724L620.696 -3.78269L615.183 -0.449536Z" fill="#1EDADC"/>
<path d="M646.981 9.86925L642.041 -1.27747L623.616 -4.25763L628.545 6.88231L646.981 9.86925Z" fill="#1EDADC"/>
<path d="M614.285 16.8066L632.699 19.7936L646.194 11.6338L627.77 8.65365L614.285 16.8066Z" fill="#1EDADC"/>
<path d="M561.123 -8.26362L563.357 -3.20618L563.593 -2.69705L562.976 -2.32368L555.61 2.12958L557.62 6.68467L571.116 -1.47512L568.646 -7.04169L561.123 -8.26362Z" fill="#1EDADC"/>
<path d="M612.264 -7.04795L614.285 -2.49965L620.405 -6.19938L621.022 -6.57275L621.864 -6.44377L631.913 -4.80774L637.426 -8.1409L619.001 -11.121L612.264 -7.04795Z" fill="#1EDADC"/>
<path d="M571.565 -7.51604L574.035 -1.94947L614.275 4.5675L609.323 -6.57244L599.275 -8.19489L578.312 -11.5959L571.565 -7.51604Z" fill="#1EDADC"/>
</g>
<rect x="1.71149" width="189.933" height="189.933" rx="31" transform="matrix(0.855743 -0.517401 0.855743 0.517401 426.451 -13.7727)" stroke="white" stroke-opacity="0.1" stroke-width="2"/>
<g clip-path="url(#clip4_867_2481)">
<path d="M1699.1 109.475L1534.86 208.781L1699.1 308.087L1863.35 208.781L1699.1 109.475Z" fill="black"/>
<path d="M1668.42 219.176L1666.4 214.628L1656.34 212.998L1655.48 212.863L1655.27 212.353L1652.58 206.271L1645.05 205.049L1649.98 216.189L1668.42 219.176Z" fill="#1EDADC"/>
<path d="M1732.26 180.577L1727.32 169.43L1708.89 166.45L1713.83 177.583L1732.26 180.577Z" fill="#1EDADC"/>
<path d="M1692.49 175.078L1697.42 186.218L1710.9 178.065L1705.97 166.925L1692.49 175.078Z" fill="#1EDADC"/>
<path d="M1628.64 213.684L1633.57 224.824L1647.06 216.664L1642.12 205.531L1628.64 213.684Z" fill="#1EDADC"/>
<path d="M1659.66 211.641L1678.07 214.628L1700.79 200.894L1698.32 195.328L1689.11 193.834L1659.66 211.641Z" fill="#1EDADC"/>
<path d="M1731.47 182.341L1713.05 179.361L1699.56 187.514L1707.09 188.736L1714.45 184.282L1715.07 183.909L1715.91 184.038L1725.97 185.667L1731.47 182.341Z" fill="#1EDADC"/>
<path d="M1649.21 217.959L1635.71 226.119L1654.13 229.099L1667.62 220.946L1649.21 217.959Z" fill="#1EDADC"/>
<path d="M1713.77 228.429L1691.97 224.892L1681.91 223.263L1668.43 231.416L1708.65 237.933L1722.13 229.78L1713.77 228.429Z" fill="#1EDADC"/>
<path d="M1746.86 213.534L1736.09 189.204L1717.66 186.224L1728.43 210.548L1746.86 213.534Z" fill="#1EDADC"/>
<path d="M1723.84 222.991L1726.52 229.067L1726.76 229.576L1726.14 229.949L1718.77 234.402L1720.79 238.951L1734.28 230.798L1729.35 219.658L1723.84 222.991Z" fill="#1EDADC"/>
<path d="M1755.63 233.309L1750.69 222.162L1732.27 219.182L1737.2 230.322L1755.63 233.309Z" fill="#1EDADC"/>
<path d="M1722.94 240.246L1741.35 243.233L1754.85 235.073L1736.42 232.093L1722.94 240.246Z" fill="#1EDADC"/>
<path d="M1686.97 192.537L1684.27 186.455L1682.03 181.404L1652.58 199.21L1657.52 210.343L1686.97 192.537Z" fill="#1EDADC"/>
<path d="M1699.1 193.562L1704.62 190.229L1696.24 188.871L1695.4 188.729L1695.17 188.226L1692.48 182.144L1684.96 180.922L1689.88 192.062L1699.1 193.562Z" fill="#1EDADC"/>
<path d="M1718.77 215.095L1725.51 211.022L1714.73 186.692L1701.24 194.852L1709.56 213.608L1718.77 215.095Z" fill="#1EDADC"/>
<path d="M1669.78 215.178L1672.01 220.235L1672.25 220.744L1671.63 221.118L1664.26 225.571L1666.27 230.126L1679.77 221.966L1677.3 216.4L1669.78 215.178Z" fill="#1EDADC"/>
<path d="M1720.92 216.392L1722.94 220.94L1729.06 217.24L1729.68 216.867L1730.52 216.996L1740.57 218.632L1746.08 215.299L1727.65 212.318L1720.92 216.392Z" fill="#1EDADC"/>
<path d="M1680.22 215.924L1682.69 221.491L1722.93 228.008L1717.98 216.868L1707.93 215.246L1686.97 211.844L1680.22 215.924Z" fill="#1EDADC"/>
</g>
<rect x="1.71149" width="189.933" height="189.933" rx="31" transform="matrix(0.855743 -0.517401 0.855743 0.517401 1535.1 209.667)" stroke="white" stroke-opacity="0.1" stroke-width="2"/>
<g clip-path="url(#clip5_867_2481)">
<path d="M1144.78 -2.2446L980.53 97.0615L1144.78 196.368L1309.02 97.0615L1144.78 -2.2446Z" fill="black"/>
<path d="M1114.09 107.455L1112.07 102.907L1102.01 101.278L1101.16 101.142L1100.94 100.633L1098.25 94.5502L1090.73 93.3283L1095.65 104.468L1114.09 107.455Z" fill="#1EDADC"/>
<path d="M1177.93 68.8555L1172.99 57.7088L1154.57 54.7287L1159.51 65.8618L1177.93 68.8555Z" fill="#1EDADC"/>
<path d="M1138.16 63.3566L1143.09 74.4966L1156.58 66.3436L1151.65 55.2036L1138.16 63.3566Z" fill="#1EDADC"/>
<path d="M1074.31 101.963L1079.24 113.103L1092.73 104.943L1087.79 93.8101L1074.31 101.963Z" fill="#1EDADC"/>
<path d="M1105.33 99.9189L1123.75 102.906L1146.46 89.1727L1143.99 83.6062L1134.78 82.1127L1105.33 99.9189Z" fill="#1EDADC"/>
<path d="M1177.14 70.6201L1158.72 67.64L1145.24 75.793L1152.76 77.0149L1160.12 72.5616L1160.74 72.1883L1161.58 72.3173L1171.64 73.9465L1177.14 70.6201Z" fill="#1EDADC"/>
<path d="M1094.88 106.239L1081.38 114.398L1099.81 117.379L1113.29 109.226L1094.88 106.239Z" fill="#1EDADC"/>
<path d="M1159.44 116.708L1137.65 113.172L1127.59 111.542L1114.1 119.695L1154.32 126.212L1167.8 118.059L1159.44 116.708Z" fill="#1EDADC"/>
<path d="M1192.54 101.814L1181.76 77.4838L1163.33 74.5036L1174.1 98.8268L1192.54 101.814Z" fill="#1EDADC"/>
<path d="M1169.51 111.27L1172.19 117.346L1172.43 117.855L1171.81 118.228L1164.45 122.682L1166.47 127.23L1179.95 119.077L1175.02 107.937L1169.51 111.27Z" fill="#1EDADC"/>
<path d="M1201.31 121.588L1196.37 110.441L1177.94 107.461L1182.87 118.601L1201.31 121.588Z" fill="#1EDADC"/>
<path d="M1168.61 128.525L1187.02 131.512L1200.52 123.353L1182.1 120.372L1168.61 128.525Z" fill="#1EDADC"/>
<path d="M1132.64 80.8173L1129.94 74.7348L1127.7 69.6841L1098.25 87.4904L1103.19 98.6235L1132.64 80.8173Z" fill="#1EDADC"/>
<path d="M1144.78 81.8425L1150.29 78.5094L1141.91 77.1517L1141.07 77.0091L1140.85 76.5068L1138.15 70.4243L1130.63 69.2023L1135.56 80.3423L1144.78 81.8425Z" fill="#1EDADC"/>
<path d="M1164.45 103.375L1171.18 99.3022L1160.4 74.9722L1146.91 83.1319L1155.23 101.889L1164.45 103.375Z" fill="#1EDADC"/>
<path d="M1115.45 103.457L1117.68 108.515L1117.92 109.024L1117.3 109.397L1109.94 113.85L1111.95 118.405L1125.44 110.246L1122.97 104.679L1115.45 103.457Z" fill="#1EDADC"/>
<path d="M1166.59 104.672L1168.61 109.22L1174.73 105.52L1175.35 105.147L1176.19 105.276L1186.24 106.912L1191.75 103.579L1173.33 100.599L1166.59 104.672Z" fill="#1EDADC"/>
<path d="M1125.89 104.204L1128.36 109.77L1168.6 116.287L1163.65 105.147L1153.6 103.525L1132.64 100.124L1125.89 104.204Z" fill="#1EDADC"/>
</g>
<rect x="1.71149" width="189.933" height="189.933" rx="31" transform="matrix(0.855743 -0.517401 0.855743 0.517401 980.777 97.947)" stroke="white" stroke-opacity="0.1" stroke-width="2"/>
<g clip-path="url(#clip6_867_2481)">
<path d="M-148.654 332.913L-312.898 432.219L-148.654 531.525L15.5914 432.219L-148.654 332.913Z" fill="black"/>
</g>
<g clip-path="url(#clip7_867_2481)">
<path d="M960 556.352L795.755 655.658L960 754.964L1124.24 655.658L960 556.352Z" fill="black"/>
<path d="M946.496 619.391L969.578 633.347L923.1 661.449L900.017 647.493L889.34 653.949L962.826 698.381L973.504 691.925L950.421 677.969L996.9 649.867L1019.98 663.823L1030.66 657.367L957.173 612.936L946.496 619.391ZM942.099 672.937L931.422 666.481L977.9 638.379L988.578 644.835L942.099 672.937Z" fill="white"/>
</g>
<rect x="1.71149" width="189.933" height="189.933" rx="31" transform="matrix(0.855743 -0.517401 0.855743 0.517401 796.002 656.544)" stroke="white" stroke-opacity="0.1" stroke-width="2"/>
<g clip-path="url(#clip8_867_2481)">
<path d="M405.674 444.633L241.429 543.939L405.674 643.246L569.919 543.939L405.674 444.633Z" fill="black"/>
<path d="M392.17 507.673L415.252 521.629L368.773 549.731L345.691 535.775L335.014 542.23L408.5 586.662L419.177 580.206L396.095 566.25L442.574 538.148L465.656 552.104L476.333 545.648L402.847 501.217L392.17 507.673ZM387.773 561.218L377.096 554.762L423.574 526.66L434.252 533.116L387.773 561.218Z" fill="white"/>
</g>
<rect x="1.71149" width="189.933" height="189.933" rx="31" transform="matrix(0.855743 -0.517401 0.855743 0.517401 241.676 544.825)" stroke="white" stroke-opacity="0.1" stroke-width="2"/>
<g clip-path="url(#clip9_867_2481)">
<path d="M36.1228 221.194L-128.122 320.5L36.1228 419.806L200.368 320.5L36.1228 221.194Z" fill="white"/>
<path d="M62.8667 324.91C77.6369 315.98 77.6369 301.501 62.8664 292.57C48.0961 283.64 24.1493 283.64 9.3792 292.57C-5.39094 301.501 -5.39109 315.98 9.3792 324.91C24.1496 333.841 48.0966 333.841 62.8667 324.91ZM72.5914 330.79C52.451 342.967 19.7946 342.967 -0.345783 330.79C-20.4862 318.613 -20.4862 298.868 -0.345784 286.69C19.7946 274.513 52.451 274.513 72.5915 286.691C92.7318 298.868 92.7318 318.613 72.5914 330.79Z" fill="#35D07F"/>
<path d="M62.8654 348.43C77.6359 339.499 77.6359 325.02 62.8657 316.09C48.0956 307.159 24.1487 307.159 9.37822 316.09C-5.39207 325.02 -5.39192 339.499 9.37822 348.43C24.1484 357.36 48.0952 357.36 62.8654 348.43ZM72.5905 354.309C52.4501 366.487 19.7937 366.487 -0.34676 354.31C-20.4872 342.132 -20.4872 322.387 -0.34676 310.21C19.7936 298.033 52.45 298.033 72.5904 310.21C92.7309 322.387 92.7309 342.132 72.5905 354.309Z" fill="#FBCC5C"/>
<path d="M73.768 330.055C73.2336 326.676 71.4561 323.412 68.5688 320.501C71.4572 317.59 73.2329 314.325 73.7687 310.946C78.0888 313.728 81.5252 316.966 83.9029 320.501C81.5252 324.035 78.0888 327.274 73.768 330.055ZM3.67688 320.5C0.788556 323.411 -0.987238 326.675 -1.52308 330.054C-5.84293 327.273 -9.27974 324.034 -11.6575 320.5C-9.27974 316.966 -5.84289 313.727 -1.52308 310.946C-0.987238 314.325 0.788519 317.589 3.67688 320.5Z" fill="#5EA33B"/>
</g>
<rect x="-1.71149" width="193.933" height="193.933" rx="33" transform="matrix(0.855743 -0.517401 0.855743 0.517401 -128.369 319.614)" stroke="black" stroke-opacity="0.1" stroke-width="2"/>
<g clip-path="url(#clip10_867_2481)">
<path d="M1144.78 444.633L980.53 543.939L1144.78 643.246L1309.02 543.939L1144.78 444.633Z" fill="white"/>
<path d="M1171.52 548.35C1186.29 539.419 1186.29 524.94 1171.52 516.01C1156.75 507.08 1132.8 507.08 1118.03 516.01C1103.26 524.94 1103.26 539.419 1118.03 548.35C1132.8 557.28 1156.75 557.28 1171.52 548.35ZM1181.24 554.229C1161.1 566.407 1128.45 566.407 1108.31 554.229C1088.17 542.052 1088.17 522.307 1108.31 510.13C1128.45 497.953 1161.1 497.953 1181.24 510.13C1201.38 522.307 1201.38 542.052 1181.24 554.229Z" fill="#35D07F"/>
<path d="M1171.52 571.869C1186.29 562.938 1186.29 548.46 1171.52 539.529C1156.75 530.599 1132.8 530.599 1118.03 539.529C1103.26 548.46 1103.26 562.939 1118.03 571.869C1132.8 580.799 1156.75 580.799 1171.52 571.869ZM1181.24 577.749C1161.1 589.926 1128.45 589.926 1108.31 577.749C1088.17 565.572 1088.17 545.827 1108.31 533.649C1128.45 521.472 1161.1 521.472 1181.24 533.65C1201.38 545.827 1201.38 565.572 1181.24 577.749Z" fill="#FBCC5C"/>
<path d="M1182.42 553.495C1181.89 550.116 1180.11 546.851 1177.22 543.94C1180.11 541.03 1181.89 537.765 1182.42 534.386C1186.74 537.167 1190.18 540.406 1192.56 543.94C1190.18 547.474 1186.74 550.713 1182.42 553.495ZM1112.33 543.939C1109.44 546.85 1107.67 550.115 1107.13 553.494C1102.81 550.713 1099.37 547.474 1096.99 543.939C1099.37 540.405 1102.81 537.166 1107.13 534.385C1107.67 537.764 1109.44 541.029 1112.33 543.939Z" fill="#5EA33B"/>
</g>
<rect x="-1.71149" width="193.933" height="193.933" rx="33" transform="matrix(0.855743 -0.517401 0.855743 0.517401 980.283 543.054)" stroke="black" stroke-opacity="0.1" stroke-width="2"/>
<g clip-path="url(#clip11_867_2481)">
<path d="M590.449 332.913L426.204 432.219L590.449 531.525L754.694 432.219L590.449 332.913Z" fill="white"/>
<path d="M617.193 436.629C631.963 427.699 631.963 413.22 617.193 404.289C602.422 395.359 578.476 395.359 563.705 404.289C548.935 413.22 548.935 427.698 563.705 436.629C578.476 445.559 602.423 445.559 617.193 436.629ZM626.918 442.509C606.777 454.686 574.121 454.686 553.98 442.509C533.84 430.331 533.84 410.587 553.98 398.409C574.121 386.232 606.777 386.232 626.918 398.409C647.058 410.587 647.058 430.331 626.918 442.509Z" fill="#35D07F"/>
<path d="M617.192 460.148C631.962 451.218 631.962 436.739 617.192 427.809C602.422 418.878 578.475 418.878 563.704 427.809C548.934 436.739 548.934 451.218 563.704 460.148C578.475 469.079 602.421 469.079 617.192 460.148ZM626.917 466.028C606.776 478.206 574.12 478.206 553.979 466.028C533.839 453.851 533.839 434.106 553.979 421.929C574.12 409.751 606.776 409.751 626.917 421.929C647.057 434.106 647.057 453.851 626.917 466.028Z" fill="#FBCC5C"/>
<path d="M628.094 441.774C627.56 438.395 625.782 435.131 622.895 432.219C625.783 429.309 627.559 426.044 628.095 422.665C632.415 425.446 635.851 428.685 638.229 432.219C635.851 435.754 632.415 438.992 628.094 441.774ZM558.003 432.219C555.115 435.129 553.339 438.394 552.803 441.773C548.483 438.992 545.046 435.753 542.669 432.219C545.046 428.684 548.483 425.446 552.803 422.664C553.339 426.044 555.115 429.308 558.003 432.219Z" fill="#5EA33B"/>
</g>
<rect x="-1.71149" width="193.933" height="193.933" rx="33" transform="matrix(0.855743 -0.517401 0.855743 0.517401 425.957 431.333)" stroke="black" stroke-opacity="0.1" stroke-width="2"/>
<g clip-path="url(#clip12_867_2481)">
<path d="M1699.1 556.352L1534.86 655.658L1699.1 754.964L1863.35 655.658L1699.1 556.352Z" fill="white"/>
<path d="M1725.85 660.068C1740.62 651.138 1740.62 636.659 1725.85 627.729C1711.08 618.798 1687.13 618.798 1672.36 627.729C1657.59 636.659 1657.59 651.138 1672.36 660.068C1687.13 668.999 1711.08 668.999 1725.85 660.068ZM1735.57 665.948C1715.43 678.125 1682.77 678.126 1662.63 665.948C1642.49 653.771 1642.49 634.026 1662.63 621.849C1682.77 609.671 1715.43 609.671 1735.57 621.849C1755.71 634.026 1755.71 653.771 1735.57 665.948Z" fill="#35D07F"/>
<path d="M1725.84 683.588C1740.62 674.657 1740.62 660.178 1725.85 651.248C1711.08 642.318 1687.13 642.318 1672.36 651.248C1657.59 660.179 1657.59 674.657 1672.36 683.588C1687.13 692.518 1711.07 692.518 1725.84 683.588ZM1735.57 689.468C1715.43 701.645 1682.77 701.645 1662.63 689.468C1642.49 677.29 1642.49 657.546 1662.63 645.368C1682.77 633.191 1715.43 633.191 1735.57 645.368C1755.71 657.546 1755.71 677.29 1735.57 689.468Z" fill="#FBCC5C"/>
<path d="M1736.75 665.214C1736.21 661.834 1734.44 658.57 1731.55 655.659C1734.44 652.748 1736.21 649.484 1736.75 646.104C1741.07 648.886 1744.5 652.124 1746.88 655.659C1744.5 659.193 1741.07 662.432 1736.75 665.214ZM1666.66 655.658C1663.77 658.569 1661.99 661.833 1661.46 665.213C1657.14 662.431 1653.7 659.193 1651.32 655.658C1653.7 652.124 1657.14 648.885 1661.46 646.104C1661.99 649.483 1663.77 652.748 1666.66 655.658Z" fill="#5EA33B"/>
</g>
<rect x="-1.71149" width="193.933" height="193.933" rx="33" transform="matrix(0.855743 -0.517401 0.855743 0.517401 1534.61 654.773)" stroke="black" stroke-opacity="0.1" stroke-width="2"/>
<g clip-path="url(#clip13_867_2481)">
<path d="M220.898 109.475L56.6533 208.781L220.898 308.087L385.143 208.781L220.898 109.475Z" fill="#FF0000"/>
<path d="M226.021 176.214L143.908 210.332L272.752 244.149L261.206 175.74L226.021 176.214ZM230.551 180.29L251.309 180.02L227.607 200.729L230.551 180.29ZM220.25 203.91L164.19 206.943L223.382 182.366L220.25 203.91ZM222.592 207.961L259.092 236.047L164.151 211.127L222.592 207.961ZM229.404 206.496L255.639 183.543L264.036 233.137L229.404 206.496Z" fill="white"/>
</g>
<g clip-path="url(#clip14_867_2481)">
<path d="M1329.55 332.913L1165.31 432.219L1329.55 531.525L1493.8 432.219L1329.55 332.913Z" fill="#FF0000"/>
<path d="M1334.67 399.652L1252.56 433.77L1381.4 467.587L1369.86 399.177L1334.67 399.652ZM1339.2 403.727L1359.96 403.458L1336.26 424.167L1339.2 403.727ZM1328.9 427.348L1272.84 430.381L1332.03 405.803L1328.9 427.348ZM1331.24 431.399L1367.74 459.485L1272.8 434.565L1331.24 431.399ZM1338.06 429.934L1364.29 406.98L1372.69 456.575L1338.06 429.934Z" fill="white"/>
</g>
<g clip-path="url(#clip15_867_2481)">
<path d="M775.224 221.194L610.979 320.5L775.224 419.806L939.469 320.5L775.224 221.194Z" fill="#FF0000"/>
<path d="M780.348 287.933L698.234 322.051L827.079 355.868L815.532 287.459L780.348 287.933ZM784.877 292.009L805.635 291.739L781.933 312.448L784.877 292.009ZM774.576 315.629L718.517 318.662L777.708 294.085L774.576 315.629ZM776.918 319.68L813.418 347.766L718.477 322.846L776.918 319.68ZM783.731 318.215L809.965 295.262L818.362 344.856L783.731 318.215Z" fill="white"/>
</g>
<g clip-path="url(#clip16_867_2481)">
<path d="M1883.88 444.633L1719.63 543.939L1883.88 643.246L2048.12 543.939L1883.88 444.633Z" fill="#FF0000"/>
<path d="M1889 511.373L1806.89 545.49L1935.73 579.307L1924.19 510.898L1889 511.373ZM1893.53 515.448L1914.29 515.179L1890.59 535.888L1893.53 515.448ZM1883.23 539.068L1827.17 542.101L1886.36 517.524L1883.23 539.068ZM1885.57 543.119L1922.07 571.205L1827.13 546.285L1885.57 543.119ZM1892.38 541.654L1918.62 518.701L1927.02 568.296L1892.38 541.654Z" fill="white"/>
</g>
<g clip-path="url(#clip17_867_2481)">
<path d="M405.674 -2.2446L241.429 97.0615L405.674 196.368L569.919 97.0615L405.674 -2.2446Z" fill="white"/>
<path d="M393.634 59.7286L401.955 85.5172C402.077 85.8869 402.417 86.2173 402.912 86.4473C403.406 86.6772 404.021 86.7912 404.644 86.7681C405.266 86.7449 405.854 86.5863 406.298 86.3215C406.742 86.0567 407.012 85.7036 407.059 85.3275L409.3 66.249C409.311 66.1356 409.376 66.0264 409.487 65.9349C409.598 65.8434 409.751 65.7734 409.927 65.7335C410.103 65.6937 410.294 65.6857 410.478 65.7105C410.661 65.7353 410.829 65.7918 410.96 65.8732L456.846 93.6168C456.986 93.7018 457.08 93.8108 457.114 93.9291C457.149 94.0475 457.122 94.1693 457.038 94.2781C456.954 94.3869 456.817 94.4775 456.644 94.5375C456.472 94.5974 456.274 94.6239 456.076 94.6133L343.859 88.5274C342.067 88.4376 340.265 88.5848 338.577 88.9587C336.889 89.3327 335.356 89.9244 334.084 90.6928L332.299 91.7721C329.979 93.1749 328.675 95.0776 328.675 97.0615C328.675 99.0454 329.979 100.948 332.299 102.351L396.925 141.425C399.245 142.828 402.392 143.616 405.673 143.616C408.954 143.616 412.101 142.828 414.422 141.425C415.918 140.521 417.006 139.4 417.582 138.169C418.158 136.938 418.203 135.639 417.712 134.394L409.392 108.606C409.269 108.236 408.929 107.906 408.435 107.676C407.941 107.446 407.325 107.332 406.703 107.355C406.08 107.378 405.493 107.537 405.049 107.802C404.605 108.066 404.334 108.419 404.287 108.796L402.046 127.874C402.036 127.987 401.971 128.097 401.86 128.188C401.748 128.28 401.595 128.35 401.419 128.39C401.243 128.429 401.052 128.437 400.869 128.413C400.685 128.388 400.518 128.331 400.387 128.25L354.489 100.499C354.349 100.414 354.255 100.305 354.221 100.187C354.186 100.069 354.213 99.9469 354.297 99.838C354.381 99.7292 354.519 99.6387 354.691 99.5787C354.863 99.5187 355.061 99.4922 355.259 99.5028L467.482 105.599C469.273 105.689 471.076 105.542 472.764 105.168C474.452 104.794 475.985 104.202 477.257 103.434L479.042 102.354C480.192 101.66 481.104 100.835 481.727 99.9275C482.35 99.0198 482.671 98.0467 482.671 97.064C482.672 96.0812 482.352 95.108 481.73 94.2C481.108 93.292 480.197 92.467 479.047 91.7721L414.422 52.6979C412.101 51.295 408.954 50.5069 405.673 50.5069C402.392 50.5069 399.245 51.295 396.925 52.6979C395.429 53.6022 394.34 54.7232 393.764 55.954C393.188 57.1848 393.144 58.4844 393.634 59.7286Z" fill="black"/>
</g>
<rect x="-1.71149" width="193.933" height="193.933" rx="33" transform="matrix(0.855743 -0.517401 0.855743 0.517401 241.182 96.176)" stroke="black" stroke-opacity="0.1" stroke-width="2"/>
<g clip-path="url(#clip18_867_2481)">
<path d="M1514.33 221.194L1350.08 320.5L1514.33 419.806L1678.57 320.5L1514.33 221.194Z" fill="white"/>
<path d="M1502.29 283.167L1510.61 308.956C1510.73 309.325 1511.07 309.656 1511.56 309.886C1512.06 310.116 1512.67 310.23 1513.3 310.207C1513.92 310.183 1514.51 310.025 1514.95 309.76C1515.4 309.495 1515.67 309.142 1515.71 308.766L1517.95 289.688C1517.96 289.574 1518.03 289.465 1518.14 289.373C1518.25 289.282 1518.4 289.212 1518.58 289.172C1518.76 289.132 1518.95 289.124 1519.13 289.149C1519.31 289.174 1519.48 289.23 1519.61 289.312L1565.5 317.055C1565.64 317.14 1565.73 317.249 1565.77 317.368C1565.8 317.486 1565.78 317.608 1565.69 317.717C1565.61 317.825 1565.47 317.916 1565.3 317.976C1565.13 318.036 1564.93 318.062 1564.73 318.052L1452.51 311.966C1450.72 311.876 1448.92 312.023 1447.23 312.397C1445.54 312.771 1444.01 313.363 1442.74 314.131L1440.95 315.211C1438.63 316.613 1437.33 318.516 1437.33 320.5C1437.33 322.484 1438.63 324.387 1440.95 325.789L1505.58 364.864C1507.9 366.266 1511.05 367.055 1514.33 367.055C1517.61 367.055 1520.75 366.266 1523.07 364.864C1524.57 363.959 1525.66 362.838 1526.24 361.608C1526.81 360.377 1526.86 359.077 1526.37 357.833L1518.04 332.044C1517.92 331.675 1517.58 331.344 1517.09 331.114C1516.59 330.884 1515.98 330.77 1515.36 330.793C1514.73 330.817 1514.15 330.975 1513.7 331.24C1513.26 331.505 1512.99 331.858 1512.94 332.234L1510.7 351.312C1510.69 351.426 1510.62 351.535 1510.51 351.627C1510.4 351.718 1510.25 351.788 1510.07 351.828C1509.9 351.868 1509.71 351.876 1509.52 351.851C1509.34 351.826 1509.17 351.77 1509.04 351.688L1463.14 323.938C1463 323.853 1462.91 323.744 1462.87 323.625C1462.84 323.507 1462.87 323.385 1462.95 323.277C1463.03 323.168 1463.17 323.077 1463.34 323.017C1463.52 322.957 1463.71 322.931 1463.91 322.941L1576.14 329.038C1577.93 329.127 1579.73 328.98 1581.42 328.606C1583.11 328.232 1584.64 327.641 1585.91 326.872L1587.69 325.793C1588.85 325.098 1589.76 324.274 1590.38 323.366C1591 322.458 1591.32 321.485 1591.32 320.502C1591.32 319.52 1591.01 318.547 1590.38 317.639C1589.76 316.731 1588.85 315.905 1587.7 315.211L1523.07 276.136C1520.75 274.734 1517.61 273.945 1514.33 273.945C1511.05 273.945 1507.9 274.734 1505.58 276.136C1504.08 277.041 1502.99 278.162 1502.42 279.392C1501.84 280.623 1501.8 281.923 1502.29 283.167Z" fill="black"/>
</g>
<rect x="-1.71149" width="193.933" height="193.933" rx="33" transform="matrix(0.855743 -0.517401 0.855743 0.517401 1349.84 319.614)" stroke="black" stroke-opacity="0.1" stroke-width="2"/>
<g clip-path="url(#clip19_867_2481)">
<path d="M960 109.475L795.755 208.781L960 308.087L1124.24 208.781L960 109.475Z" fill="white"/>
<path d="M947.96 171.448L956.281 197.237C956.404 197.607 956.743 197.937 957.238 198.167C957.732 198.397 958.347 198.511 958.97 198.488C959.592 198.465 960.18 198.306 960.624 198.041C961.068 197.776 961.338 197.423 961.385 197.047L963.626 177.969C963.637 177.855 963.702 177.746 963.813 177.655C963.924 177.563 964.077 177.493 964.253 177.453C964.429 177.413 964.621 177.405 964.804 177.43C964.987 177.455 965.155 177.512 965.286 177.593L1011.17 205.337C1011.31 205.422 1011.41 205.531 1011.44 205.649C1011.47 205.767 1011.45 205.889 1011.36 205.998C1011.28 206.107 1011.14 206.197 1010.97 206.257C1010.8 206.317 1010.6 206.344 1010.4 206.333L898.185 200.247C896.394 200.157 894.591 200.304 892.903 200.678C891.215 201.052 889.682 201.644 888.41 202.413L886.625 203.492C884.305 204.895 883.002 206.797 883.002 208.781C883.002 210.765 884.305 212.668 886.625 214.071L951.251 253.145C953.571 254.548 956.718 255.336 959.999 255.336C963.281 255.336 966.428 254.548 968.748 253.145C970.244 252.241 971.332 251.12 971.908 249.889C972.484 248.658 972.529 247.358 972.038 246.114L963.718 220.326C963.595 219.956 963.255 219.625 962.761 219.395C962.267 219.166 961.651 219.052 961.029 219.075C960.406 219.098 959.819 219.256 959.375 219.521C958.931 219.786 958.66 220.139 958.614 220.515L956.372 239.594C956.362 239.707 956.297 239.816 956.186 239.908C956.074 239.999 955.921 240.069 955.745 240.109C955.57 240.149 955.378 240.157 955.195 240.132C955.011 240.108 954.844 240.051 954.713 239.97L908.815 212.219C908.675 212.134 908.581 212.025 908.547 211.907C908.512 211.788 908.539 211.667 908.623 211.558C908.707 211.449 908.845 211.358 909.017 211.298C909.189 211.238 909.387 211.212 909.585 211.223L1021.81 217.319C1023.6 217.409 1025.4 217.261 1027.09 216.888C1028.78 216.514 1030.31 215.922 1031.58 215.153L1033.37 214.074C1034.52 213.38 1035.43 212.555 1036.05 211.647C1036.68 210.739 1037 209.766 1037 208.784C1037 207.801 1036.68 206.828 1036.06 205.92C1035.43 205.012 1034.52 204.187 1033.37 203.492L968.748 164.418C966.428 163.015 963.281 162.227 959.999 162.227C956.718 162.227 953.571 163.015 951.251 164.418C949.755 165.322 948.667 166.443 948.091 167.674C947.514 168.905 947.47 170.204 947.96 171.448Z" fill="black"/>
</g>
<rect x="-1.71149" width="193.933" height="193.933" rx="33" transform="matrix(0.855743 -0.517401 0.855743 0.517401 795.508 207.896)" stroke="black" stroke-opacity="0.1" stroke-width="2"/>
<g clip-path="url(#clip20_867_2481)">
<path d="M2068.65 332.913L1904.41 432.219L2068.65 531.525L2232.9 432.219L2068.65 332.913Z" fill="white"/>
</g>
<g clip-path="url(#clip21_867_2481)">
<path d="M1883.88 -2.2446L1719.63 97.0615L1883.88 196.368L2048.12 97.0615L1883.88 -2.2446Z" fill="#15122E"/>
<path d="M1912.63 66.6573C1891.38 79.505 1870.31 92.4614 1848.71 105.092C1840.24 99.9714 1834.49 93.0044 1834.67 85.7116C1834.49 74.7104 1846.55 63.9419 1863.67 59.9076C1880.59 55.7724 1900.94 58.4878 1912.65 66.665L1912.63 66.6573Z" fill="#5FC0C1"/>
<path d="M1943.79 109.436C1945.05 108.675 1946.84 108.458 1947.74 109.001C1948.64 109.544 1948.28 110.63 1947.02 111.391L1912.81 132.074C1911.56 132.835 1909.76 133.052 1908.86 132.509C1907.96 131.966 1908.32 130.88 1909.58 130.119L1943.79 109.436Z" fill="#E1177C"/>
<path d="M1905.42 136.543C1906.71 135.763 1906.71 134.499 1905.42 133.719C1904.13 132.939 1902.04 132.939 1900.75 133.719C1899.46 134.499 1899.46 135.763 1900.75 136.543C1902.04 137.323 1904.13 137.323 1905.42 136.543Z" fill="#E1177C"/>
<path d="M1917.32 118.908C1918.61 118.128 1918.61 116.864 1917.32 116.084C1916.03 115.304 1913.94 115.304 1912.65 116.084C1911.36 116.864 1911.36 118.128 1912.65 118.908C1913.94 119.688 1916.03 119.688 1917.32 118.908Z" fill="#E1177C"/>
<path d="M1952.78 91.8017C1954.04 91.0414 1956.2 91.0414 1957.45 91.8017C1958.71 92.5621 1958.71 93.8654 1957.45 94.6258L1923.96 114.875C1922.71 115.635 1920.55 115.635 1919.29 114.875C1918.04 114.115 1918.04 112.811 1919.29 112.051L1952.78 91.8017V91.8017Z" fill="#E1177C"/>
<path d="M1864.73 140.244C1866.02 139.464 1866.02 138.2 1864.73 137.42C1863.44 136.64 1861.35 136.64 1860.06 137.42C1858.77 138.2 1858.77 139.464 1860.06 140.244C1861.35 141.024 1863.44 141.024 1864.73 140.244Z" fill="#E1177C"/>
<path d="M1893.37 117.281C1894.63 116.52 1896.79 116.52 1898.04 117.281C1899.3 118.041 1899.3 119.344 1898.04 120.105L1870.49 136.762C1869.24 137.522 1867.08 137.522 1865.82 136.762C1864.57 136.001 1864.57 134.698 1865.82 133.938L1893.37 117.281Z" fill="#E1177C"/>
<path d="M1955.13 79.9384C1956.39 79.1781 1958.54 79.1781 1959.8 79.9384C1961.06 80.6987 1961.06 82.0021 1959.8 82.7624L1905.06 115.859C1903.81 116.62 1901.65 116.62 1900.39 115.859C1899.13 115.099 1899.13 113.796 1900.39 113.035L1955.13 79.9384Z" fill="#E1177C"/>
<path d="M1936.22 80.9166C1937.48 80.1563 1939.63 80.1563 1940.89 80.9166C1942.15 81.677 1942.15 82.9803 1940.89 83.7407L1873.73 124.348C1872.47 125.108 1870.31 125.108 1869.06 124.348C1867.8 123.587 1867.8 122.284 1869.06 121.524L1936.22 80.9166V80.9166Z" fill="#E1177C"/>
<path d="M1866.35 128.808C1867.64 128.029 1867.64 126.764 1866.35 125.984C1865.06 125.205 1862.97 125.205 1861.68 125.984C1860.39 126.764 1860.39 128.029 1861.68 128.808C1862.97 129.588 1865.06 129.588 1866.35 128.808Z" fill="#E1177C"/>
<path d="M1913.71 84.2839C1914.97 83.5236 1917.12 83.5236 1918.38 84.2839C1919.64 85.0442 1919.64 86.3476 1918.38 87.1079L1851.21 127.723C1849.95 128.483 1847.8 128.483 1846.54 127.723C1845.28 126.962 1845.28 125.659 1846.54 124.899L1913.7 84.2917L1913.71 84.2839Z" fill="#E1177C"/>
<path d="M1843.12 132.625C1844.41 131.845 1844.41 130.581 1843.12 129.801C1841.83 129.021 1839.74 129.021 1838.45 129.801C1837.16 130.581 1837.16 131.845 1838.45 132.625C1839.74 133.405 1841.83 133.405 1843.12 132.625Z" fill="#E1177C"/>
<path d="M1849.25 118.467C1850.54 117.687 1850.54 116.423 1849.25 115.643C1847.96 114.863 1845.86 114.863 1844.57 115.643C1843.28 116.423 1843.28 117.687 1844.57 118.467C1845.86 119.247 1847.96 119.247 1849.25 118.467Z" fill="#E1177C"/>
<path d="M1925.59 66.6566C1926.85 65.8963 1929.01 65.8963 1930.26 66.6566C1931.52 67.4169 1931.52 68.7203 1930.26 69.4806L1857.16 113.68C1855.9 114.44 1853.75 114.44 1852.49 113.68C1851.23 112.919 1851.23 111.616 1852.49 110.856L1925.59 66.6566Z" fill="#E1177C"/>
</g>
<rect x="1.71149" width="189.933" height="189.933" rx="31" transform="matrix(0.855743 -0.517401 0.855743 0.517401 1719.88 97.947)" stroke="white" stroke-opacity="0.1" stroke-width="2"/>
<g clip-path="url(#clip22_867_2481)">
<path d="M1329.55 -113.964L1165.31 -14.6582L1329.55 84.6479L1493.8 -14.6582L1329.55 -113.964Z" fill="#15122E"/>
<path d="M1389.46 -2.28311C1390.72 -3.04343 1392.52 -3.26066 1393.41 -2.71758C1394.31 -2.1745 1393.95 -1.08834 1392.7 -0.328028L1358.49 20.3556C1357.23 21.1159 1355.43 21.3331 1354.53 20.79C1353.64 20.247 1354 19.1608 1355.25 18.4005L1389.46 -2.28311Z" fill="#E1177C"/>
<path d="M1351.1 24.8241C1352.39 24.0443 1352.39 22.7799 1351.1 22.0001C1349.81 21.2203 1347.71 21.2203 1346.43 22.0001C1345.14 22.7799 1345.14 24.0443 1346.43 24.8241C1347.71 25.6039 1349.81 25.6039 1351.1 24.8241Z" fill="#E1177C"/>
<path d="M1362.99 7.18935C1364.28 6.40952 1364.28 5.14517 1362.99 4.36534C1361.7 3.58551 1359.61 3.5855 1358.32 4.36534C1357.03 5.14517 1357.03 6.40952 1358.32 7.18935C1359.61 7.96918 1361.7 7.96918 1362.99 7.18935Z" fill="#E1177C"/>
<path d="M1398.46 -19.918C1399.72 -20.6783 1401.87 -20.6783 1403.13 -19.918C1404.39 -19.1577 1404.39 -17.8543 1403.13 -17.094L1369.64 3.15517C1368.38 3.91549 1366.22 3.91549 1364.97 3.15517C1363.71 2.39486 1363.71 1.09147 1364.97 0.331155L1398.46 -19.918V-19.918Z" fill="#E1177C"/>
<path d="M1310.41 28.5243C1311.7 27.7445 1311.7 26.4801 1310.41 25.7003C1309.12 24.9205 1307.03 24.9205 1305.74 25.7003C1304.45 26.4801 1304.45 27.7445 1305.74 28.5243C1307.03 29.3041 1309.12 29.3041 1310.41 28.5243Z" fill="#E1177C"/>
<path d="M1339.05 5.55985C1340.3 4.79954 1342.46 4.79953 1343.72 5.55984C1344.98 6.32016 1344.98 7.62355 1343.72 8.38387L1316.17 25.0409C1314.91 25.8012 1312.75 25.8012 1311.5 25.0409C1310.24 24.2806 1310.24 22.9772 1311.5 22.2169L1339.05 5.55985Z" fill="#E1177C"/>
<path d="M1400.81 -31.7804C1402.06 -32.5407 1404.22 -32.5407 1405.48 -31.7804C1406.73 -31.0201 1406.73 -29.7167 1405.48 -28.9563L1350.74 4.14052C1349.48 4.90084 1347.32 4.90084 1346.07 4.14052C1344.81 3.38021 1344.81 2.07682 1346.07 1.31651L1400.81 -31.7804Z" fill="#E1177C"/>
<path d="M1381.89 -30.8031C1383.15 -31.5634 1385.3 -31.5634 1386.56 -30.8031C1387.82 -30.0428 1387.82 -28.7394 1386.56 -27.9791L1319.4 12.6278C1318.14 13.3881 1315.99 13.3881 1314.73 12.6278C1313.47 11.8675 1313.47 10.5641 1314.73 9.80381L1381.89 -30.8031V-30.8031Z" fill="#E1177C"/>
<path d="M1312.02 17.0888C1313.31 16.3089 1313.31 15.0446 1312.02 14.2647C1310.73 13.4849 1308.64 13.4849 1307.35 14.2647C1306.06 15.0446 1306.06 16.3089 1307.35 17.0888C1308.64 17.8686 1310.73 17.8686 1312.02 17.0888Z" fill="#E1177C"/>
<path d="M1359.38 -27.4358C1360.64 -28.1961 1362.8 -28.1961 1364.06 -27.4358C1365.31 -26.6755 1365.31 -25.3721 1364.06 -24.6118L1296.88 16.0028C1295.62 16.7631 1293.47 16.7631 1292.21 16.0028C1290.95 15.2425 1290.95 13.9391 1292.21 13.1788L1359.37 -27.4281L1359.38 -27.4358Z" fill="#E1177C"/>
<path d="M1288.8 20.9061C1290.09 20.1263 1290.09 18.862 1288.8 18.0821C1287.51 17.3023 1285.42 17.3023 1284.13 18.0821C1282.84 18.862 1282.84 20.1263 1284.13 20.9061C1285.42 21.686 1287.51 21.686 1288.8 20.9061Z" fill="#E1177C"/>
<path d="M1294.92 6.74697C1296.21 5.96714 1296.21 4.70278 1294.92 3.92295C1293.63 3.14312 1291.54 3.14312 1290.25 3.92295C1288.96 4.70278 1288.96 5.96714 1290.25 6.74697C1291.54 7.5268 1293.63 7.5268 1294.92 6.74697Z" fill="#E1177C"/>
<path d="M1371.27 -45.0631C1372.52 -45.8235 1374.68 -45.8235 1375.94 -45.0631C1377.2 -44.3028 1377.2 -42.9994 1375.94 -42.2391L1302.84 1.95986C1301.58 2.72018 1299.42 2.72017 1298.17 1.95986C1296.91 1.19955 1296.91 -0.103845 1298.17 -0.864157L1371.27 -45.0631Z" fill="#E1177C"/>
</g>
<rect x="1.71149" width="189.933" height="189.933" rx="31" transform="matrix(0.855743 -0.517401 0.855743 0.517401 1165.55 -13.7727)" stroke="white" stroke-opacity="0.1" stroke-width="2"/>
<g clip-path="url(#clip23_867_2481)">
<path d="M2068.65 -113.964L1904.41 -14.6582L2068.65 84.6479L2232.9 -14.6582L2068.65 -113.964Z" fill="#4F473B"/>
</g>
<g clip-path="url(#clip24_867_2481)">
<path d="M220.898 556.352L56.6533 655.658L220.898 754.964L385.143 655.658L220.898 556.352Z" fill="#4F473B"/>
<path d="M223.551 654.54L288.161 654.375C287.145 633.145 258.936 616.089 223.823 615.475" fill="white"/>
<path d="M223.311 657.26L223.039 695.751L268.252 684.433L286.972 657.096" fill="white"/>
<path d="M218.819 655.974L219.092 616.049L176.006 626.942L218.789 689.461L218.819 655.974Z" fill="white"/>
<path d="M173.824 684.606C185.766 691.855 201.858 696.05 218.779 696.326L174.104 630.947" fill="white"/>
</g>
</g>
<defs>
<linearGradient id="paint0_linear_867_2481" x1="225.908" y1="35.9587" x2="221.765" y2="-64.9407" gradientUnits="userSpaceOnUse">
<stop offset="0.08" stop-color="#9945FF"/>
<stop offset="0.3" stop-color="#8752F3"/>
<stop offset="0.5" stop-color="#5497D5"/>
<stop offset="0.6" stop-color="#43B4CA"/>
<stop offset="0.72" stop-color="#28E0B9"/>
<stop offset="0.97" stop-color="#19FB9B"/>
</linearGradient>
<linearGradient id="paint1_linear_867_2481" x1="1334.56" y1="259.398" x2="1330.42" y2="158.499" gradientUnits="userSpaceOnUse">
<stop offset="0.08" stop-color="#9945FF"/>
<stop offset="0.3" stop-color="#8752F3"/>
<stop offset="0.5" stop-color="#5497D5"/>
<stop offset="0.6" stop-color="#43B4CA"/>
<stop offset="0.72" stop-color="#28E0B9"/>
<stop offset="0.97" stop-color="#19FB9B"/>
</linearGradient>
<linearGradient id="paint2_linear_867_2481" x1="780.234" y1="147.678" x2="776.092" y2="46.779" gradientUnits="userSpaceOnUse">
<stop offset="0.08" stop-color="#9945FF"/>
<stop offset="0.3" stop-color="#8752F3"/>
<stop offset="0.5" stop-color="#5497D5"/>
<stop offset="0.6" stop-color="#43B4CA"/>
<stop offset="0.72" stop-color="#28E0B9"/>
<stop offset="0.97" stop-color="#19FB9B"/>
</linearGradient>
<linearGradient id="paint3_linear_867_2481" x1="1888.89" y1="371.117" x2="1884.74" y2="270.217" gradientUnits="userSpaceOnUse">
<stop offset="0.08" stop-color="#9945FF"/>
<stop offset="0.3" stop-color="#8752F3"/>
<stop offset="0.5" stop-color="#5497D5"/>
<stop offset="0.6" stop-color="#43B4CA"/>
<stop offset="0.72" stop-color="#28E0B9"/>
<stop offset="0.97" stop-color="#19FB9B"/>
</linearGradient>
<clipPath id="clip0_867_2481">
<rect width="1920" height="640" fill="white"/>
</clipPath>
<clipPath id="clip1_867_2481">
<rect width="191.933" height="191.933" rx="32" transform="matrix(0.855743 -0.517401 0.855743 0.517401 56.6533 -14.6582)" fill="white"/>
</clipPath>
<clipPath id="clip2_867_2481">
<rect width="191.933" height="191.933" rx="32" transform="matrix(0.855743 -0.517401 0.855743 0.517401 610.979 97.0615)" fill="white"/>
</clipPath>
<clipPath id="clip3_867_2481">
<rect width="191.933" height="191.933" rx="32" transform="matrix(0.855743 -0.517401 0.855743 0.517401 426.204 -14.6582)" fill="white"/>
</clipPath>
<clipPath id="clip4_867_2481">
<rect width="191.933" height="191.933" rx="32" transform="matrix(0.855743 -0.517401 0.855743 0.517401 1534.86 208.781)" fill="white"/>
</clipPath>
<clipPath id="clip5_867_2481">
<rect width="191.933" height="191.933" rx="32" transform="matrix(0.855743 -0.517401 0.855743 0.517401 980.53 97.0615)" fill="white"/>
</clipPath>
<clipPath id="clip6_867_2481">
<rect width="191.933" height="191.933" rx="32" transform="matrix(0.855743 -0.517401 0.855743 0.517401 -312.898 432.219)" fill="white"/>
</clipPath>
<clipPath id="clip7_867_2481">
<rect width="191.933" height="191.933" rx="32" transform="matrix(0.855743 -0.517401 0.855743 0.517401 795.755 655.658)" fill="white"/>
</clipPath>
<clipPath id="clip8_867_2481">
<rect width="191.933" height="191.933" rx="32" transform="matrix(0.855743 -0.517401 0.855743 0.517401 241.429 543.939)" fill="white"/>
</clipPath>
<clipPath id="clip9_867_2481">
<rect width="191.933" height="191.933" rx="32" transform="matrix(0.855743 -0.517401 0.855743 0.517401 -128.122 320.5)" fill="white"/>
</clipPath>
<clipPath id="clip10_867_2481">
<rect width="191.933" height="191.933" rx="32" transform="matrix(0.855743 -0.517401 0.855743 0.517401 980.53 543.939)" fill="white"/>
</clipPath>
<clipPath id="clip11_867_2481">
<rect width="191.933" height="191.933" rx="32" transform="matrix(0.855743 -0.517401 0.855743 0.517401 426.204 432.219)" fill="white"/>
</clipPath>
<clipPath id="clip12_867_2481">
<rect width="191.933" height="191.933" rx="32" transform="matrix(0.855743 -0.517401 0.855743 0.517401 1534.86 655.658)" fill="white"/>
</clipPath>
<clipPath id="clip13_867_2481">
<rect width="191.933" height="191.933" rx="32" transform="matrix(0.855743 -0.517401 0.855743 0.517401 56.6533 208.781)" fill="white"/>
</clipPath>
<clipPath id="clip14_867_2481">
<rect width="191.933" height="191.933" rx="32" transform="matrix(0.855743 -0.517401 0.855743 0.517401 1165.31 432.219)" fill="white"/>
</clipPath>
<clipPath id="clip15_867_2481">
<rect width="191.933" height="191.933" rx="32" transform="matrix(0.855743 -0.517401 0.855743 0.517401 610.979 320.5)" fill="white"/>
</clipPath>
<clipPath id="clip16_867_2481">
<rect width="191.933" height="191.933" rx="32" transform="matrix(0.855743 -0.517401 0.855743 0.517401 1719.63 543.939)" fill="white"/>
</clipPath>
<clipPath id="clip17_867_2481">
<rect width="191.933" height="191.933" rx="32" transform="matrix(0.855743 -0.517401 0.855743 0.517401 241.429 97.0615)" fill="white"/>
</clipPath>
<clipPath id="clip18_867_2481">
<rect width="191.933" height="191.933" rx="32" transform="matrix(0.855743 -0.517401 0.855743 0.517401 1350.08 320.5)" fill="white"/>
</clipPath>
<clipPath id="clip19_867_2481">
<rect width="191.933" height="191.933" rx="32" transform="matrix(0.855743 -0.517401 0.855743 0.517401 795.755 208.781)" fill="white"/>
</clipPath>
<clipPath id="clip20_867_2481">
<rect width="191.933" height="191.933" rx="32" transform="matrix(0.855743 -0.517401 0.855743 0.517401 1904.41 432.219)" fill="white"/>
</clipPath>
<clipPath id="clip21_867_2481">
<rect width="191.933" height="191.933" rx="32" transform="matrix(0.855743 -0.517401 0.855743 0.517401 1719.63 97.0615)" fill="white"/>
</clipPath>
<clipPath id="clip22_867_2481">
<rect width="191.933" height="191.933" rx="32" transform="matrix(0.855743 -0.517401 0.855743 0.517401 1165.31 -14.6582)" fill="white"/>
</clipPath>
<clipPath id="clip23_867_2481">
<rect width="191.933" height="191.933" rx="32" transform="matrix(0.855743 -0.517401 0.855743 0.517401 1904.41 -14.6582)" fill="white"/>
</clipPath>
<clipPath id="clip24_867_2481">
<rect width="191.933" height="191.933" rx="32" transform="matrix(0.855743 -0.517401 0.855743 0.517401 56.6533 655.658)" fill="white"/>
</clipPath>
</defs>
</svg>
