<?xml version="1.0" encoding="UTF-8"?><svg
  id="a"
  xmlns="http://www.w3.org/2000/svg"
  viewBox="0 0 120 32"
>
  <path
    d="M0,32V0H10.2l7.77,28.44h.55V0h5.37V32H13.74L5.96,3.56h-.6v28.44H0Z"
  />
  <path
    d="M38.59,32c-3.91,0-7.03-1.06-9.35-3.19-2.33-2.12-3.49-5.18-3.49-9.16v-7.3c0-3.99,1.16-7.04,3.49-9.17,2.33-2.12,5.45-3.19,9.35-3.19s7.06,1.06,9.38,3.19c2.31,2.13,3.47,5.18,3.47,9.17v7.3c0,3.99-1.16,7.04-3.47,9.16-2.31,2.12-5.44,3.19-9.38,3.19Zm0-4.75c2.34,0,4.17-.67,5.48-2,1.31-1.33,1.96-3.14,1.96-5.43v-7.65c0-2.29-.65-4.09-1.96-5.43-1.31-1.33-3.13-2-5.48-2s-4.13,.67-5.43,2c-1.31,1.33-1.96,3.14-1.96,5.43v7.65c0,2.28,.65,4.09,1.96,5.43,1.31,1.33,3.12,2,5.43,2Z"
  />
  <path
    d="M53.28,32V0h10l6.27,27.82h.76L76.64,0h9.96V32h-5.23V3.56h-.57l-6.47,28.44h-8.74L59.12,3.56h-.57v28.44h-5.27Z"
  />
  <path d="M89.26,32V0h5.45V32h-5.45Z" />
  <path
    d="M108.19,32c-2.4,0-4.53-.42-6.38-1.25s-3.3-2.04-4.35-3.63c-1.05-1.58-1.58-3.52-1.58-5.8v-1.14h5.37v1.14c0,2.02,.63,3.53,1.89,4.53,1.26,1,2.95,1.5,5.05,1.5s3.74-.42,4.82-1.28c1.08-.85,1.62-1.95,1.62-3.3,0-.91-.25-1.65-.77-2.22-.51-.57-1.25-1.03-2.23-1.38-.98-.35-2.16-.69-3.54-1.01l-1.35-.26c-2.07-.47-3.87-1.06-5.39-1.78-1.52-.72-2.68-1.65-3.49-2.79-.81-1.14-1.22-2.64-1.22-4.48s.45-3.43,1.35-4.75c.9-1.32,2.18-2.33,3.83-3.03,1.65-.7,3.59-1.06,5.82-1.06s4.21,.37,5.95,1.1c1.74,.73,3.12,1.83,4.12,3.3,1.01,1.47,1.51,3.3,1.51,5.49v1.45h-5.37v-1.45c0-1.26-.25-2.27-.77-3.03-.51-.76-1.23-1.32-2.16-1.67-.93-.35-2.03-.53-3.29-.53-1.86,0-3.28,.35-4.24,1.06-.96,.7-1.44,1.7-1.44,2.99,0,.82,.22,1.52,.65,2.09,.44,.57,1.08,1.04,1.94,1.41s1.93,.68,3.22,.94l1.35,.31c2.16,.47,4.06,1.06,5.68,1.78,1.62,.72,2.89,1.66,3.81,2.83,.92,1.17,1.37,2.7,1.37,4.57s-.49,3.47-1.46,4.88c-.98,1.41-2.34,2.51-4.1,3.3-1.76,.79-3.84,1.19-6.24,1.19Z"
  />
</svg>
