<svg width="208" height="96" viewBox="0 0 208 96" fill="none" xmlns="http://www.w3.org/2000/svg">
<g clip-path="url(#clip0_225_2)">
<rect width="208" height="96" fill="url(#paint0_linear_225_2)"/>
<g clip-path="url(#clip1_225_2)">
<path d="M186 90.5C186 135.511 149.511 172 104.5 172C59.4888 172 23 135.511 23 90.5C23 45.4888 59.4888 9 104.5 9C149.511 9 186 45.4888 186 90.5ZM43.375 90.5C43.375 124.258 70.7416 151.625 104.5 151.625C138.258 151.625 165.625 124.258 165.625 90.5C165.625 56.7416 138.258 29.375 104.5 29.375C70.7416 29.375 43.375 56.7416 43.375 90.5Z" fill="white" fill-opacity="0.2"/>
<path d="M34.2709 102.883C28.73 103.86 23.3784 100.154 23.0999 94.535C22.4327 81.0753 25.1121 67.603 30.9699 55.3492C38.2988 40.0184 50.2362 27.3618 65.1125 19.1496C79.9888 10.9375 97.0599 7.58053 113.938 9.54832C127.429 11.1212 140.257 16.033 151.291 23.7699C155.897 27.0001 156.181 33.5033 152.402 37.6714V37.6714C148.623 41.8394 142.215 42.0696 137.478 39.0341C129.696 34.048 120.846 30.8667 111.579 29.7862C98.9199 28.3104 86.1166 30.8281 74.9594 36.9872C63.8021 43.1464 54.8491 52.6388 49.3525 64.1369C45.3284 72.5546 43.3042 81.739 43.3768 90.9806C43.421 96.6068 39.8118 101.906 34.2709 102.883V102.883Z" fill="white"/>
<g filter="url(#filter0_f_225_2)">
<path d="M34.2709 102.883C28.73 103.86 23.3784 100.154 23.0999 94.535C22.4327 81.0753 25.1121 67.603 30.9699 55.3492C38.2988 40.0184 50.2362 27.3618 65.1125 19.1496C79.9888 10.9375 97.0599 7.58053 113.938 9.54832C127.429 11.1212 140.257 16.033 151.291 23.7699C155.897 27.0001 156.181 33.5033 152.402 37.6714V37.6714C148.623 41.8394 142.215 42.0696 137.478 39.0341C129.696 34.048 120.846 30.8667 111.579 29.7862C98.9199 28.3104 86.1166 30.8281 74.9594 36.9872C63.8021 43.1464 54.8491 52.6388 49.3525 64.1369C45.3284 72.5546 43.3042 81.739 43.3768 90.9806C43.421 96.6068 39.8118 101.906 34.2709 102.883V102.883Z" fill="white"/>
</g>
</g>
</g>
<defs>
<filter id="filter0_f_225_2" x="-1.00006" y="-15.0001" width="180.013" height="142.04" filterUnits="userSpaceOnUse" color-interpolation-filters="sRGB">
<feFlood flood-opacity="0" result="BackgroundImageFix"/>
<feBlend mode="normal" in="SourceGraphic" in2="BackgroundImageFix" result="shape"/>
<feGaussianBlur stdDeviation="12" result="effect1_foregroundBlur_225_2"/>
</filter>
<linearGradient id="paint0_linear_225_2" x1="208" y1="0" x2="2.86102e-06" y2="96" gradientUnits="userSpaceOnUse">
<stop stop-color="#1A5EE5"/>
<stop offset="1" stop-color="#B448EA"/>
</linearGradient>
<clipPath id="clip0_225_2">
<rect width="208" height="96" fill="white"/>
</clipPath>
<clipPath id="clip1_225_2">
<rect width="208" height="96" fill="white"/>
</clipPath>
</defs>
</svg>
