<svg width="128" height="128" viewBox="0 0 128 128" fill="none" xmlns="http://www.w3.org/2000/svg">
<rect width="128" height="128" fill="#EE306F"/>
<path fill-rule="evenodd" clip-rule="evenodd" d="M85.6874 44.1182C77.4126 44.1182 71.7408 49.2884 66.8389 55.6942L69.7437 59.9374C74.2343 53.7945 79.0067 48.9613 85.6874 48.9613C93.3612 48.9613 99.7424 54.5239 100.921 61.7804H81.871V66.6238H105.852C105.95 65.8203 106 65.0115 106 64.2021C106 53.1277 96.8879 44.1182 85.6874 44.1182" fill="white"/>
<path fill-rule="evenodd" clip-rule="evenodd" d="M85.6872 79.4423C77.5171 79.4423 72.1262 72.3862 65.2828 62.0334C58.4395 51.6807 51.9799 44.1182 41.9609 44.1182C30.7602 44.1182 21.6479 53.1277 21.6479 64.2021C21.6479 75.2762 30.7602 84.2857 41.9609 84.2857C50.221 84.2857 55.8876 79.1333 60.7835 72.7432L57.9 68.4727C53.4106 74.6128 48.6392 79.4423 41.9609 79.4423C33.4524 79.4423 26.5304 72.6056 26.5304 64.2021C26.5304 55.7985 33.4524 48.9613 41.9609 48.9613C50.1308 48.9613 55.2309 55.6581 62.35 66.3534C69.469 77.0487 75.6679 84.2857 85.6872 84.2857C89.7648 84.2933 93.7507 83.0751 97.1274 80.7893C100.504 78.5035 103.116 75.2556 104.624 71.467H99.2486C97.9078 73.8875 95.9424 75.9043 93.5572 77.307C91.172 78.7097 88.4543 79.4471 85.6872 79.4423" fill="white"/>
</svg>
