<svg width="128" height="128" viewBox="0 0 128 128" fill="none" xmlns="http://www.w3.org/2000/svg">
<rect width="128" height="128" fill="#181A20"/>
<path fill-rule="evenodd" clip-rule="evenodd" d="M63.5002 28L44.1592 39.0283L51.2699 43.1025L63.5002 36.1483L75.7302 43.1025L82.8409 39.0283L63.5002 28ZM75.7302 48.8625L82.8409 52.9366V61.0849L70.6105 68.039V81.9475L63.5002 86.0217L56.3895 81.9475V68.039L44.1592 61.0849V52.9366L51.2699 48.8625L63.5002 55.8165L75.7302 48.8625ZM82.8409 66.845V74.9933L75.7302 79.0676V70.9189L82.8409 66.845ZM75.6591 84.8273L87.8896 77.8732V63.9648L95 59.8908V81.9475L75.6591 92.9756V84.8273ZM87.8896 50.0566L80.7788 45.9825L87.8896 41.9083L95 45.9825V54.1308L87.8896 58.205V50.0566ZM56.3895 95.926V87.7777L63.5002 91.8517L70.6105 87.7777V95.926L63.5002 100L56.3895 95.926ZM51.2699 79.0676L44.1592 74.9933V66.845L51.2699 70.9189V79.0676ZM63.5002 50.0566L56.3895 45.9825L63.5002 41.9083L70.6105 45.9825L63.5002 50.0566ZM46.2213 45.9825L39.1106 50.0566V58.205L32 54.1308V45.9825L39.1106 41.9083L46.2213 45.9825ZM32 59.8908L39.1106 63.9648V77.8732L51.3409 84.8273V92.9756L32 81.9475V59.8908Z" fill="#F0B90B"/>
</svg>
