<svg width="128" height="128" viewBox="0 0 128 128" fill="none" xmlns="http://www.w3.org/2000/svg">
<g clip-path="url(#clip0_635_1829)">
<path d="M128 0H0V128H128V0Z" fill="black"/>
<path d="M45.3447 58.741L47.4884 55.0222L44.6184 50.0522L44.3734 49.6322L44.6184 49.221L47.4884 44.251L45.3447 40.5322L40.0859 49.6322L45.3447 58.741Z" fill="#1EDADC"/>
<path d="M95.0977 58.741L100.356 49.6322L95.0977 40.5322L89.8477 49.6322L95.0977 58.741Z" fill="#1EDADC"/>
<path d="M83.145 39.7012L77.8862 48.8012H88.395L93.6537 39.7012H83.145Z" fill="#1EDADC"/>
<path d="M33.3838 39.7012L28.125 48.8012H38.6425L43.8925 39.7012H33.3838Z" fill="#1EDADC"/>
<path d="M46.7891 50.4717L52.0391 59.5717H69.7403L72.3653 55.0217L69.7403 50.4717H46.7891Z" fill="#1EDADC"/>
<path d="M93.6537 59.5717L88.395 50.4717H77.8862L80.03 54.1904H85.77H86.2512L86.4962 54.6017L89.3662 59.5717H93.6537Z" fill="#1EDADC"/>
<path d="M38.6425 50.4717H28.125L33.3838 59.5717H43.8925L38.6425 50.4717Z" fill="#1EDADC"/>
<path d="M57.0522 82.375L50.8397 71.6038L47.9697 66.6338H37.4609L48.9322 86.505H59.4409L57.0522 82.375Z" fill="#1EDADC"/>
<path d="M79.5488 85.6734L91.0288 65.7934L85.77 56.6934L74.29 76.5646L79.5488 85.6734Z" fill="#1EDADC"/>
<path d="M64.481 82.7949L61.611 87.7562L61.3748 88.1762H60.8935H55.1535L53.0098 91.8949H63.5185L68.7773 82.7949H64.481Z" fill="#1EDADC"/>
<path d="M70.2212 101.835L75.4799 92.726L70.2212 83.626L64.9624 92.726L70.2212 101.835Z" fill="#1EDADC"/>
<path d="M53.0098 93.5654L58.2598 102.665H68.7773L63.5185 93.5654H53.0098Z" fill="#1EDADC"/>
<path d="M69.7403 48.8012L72.6103 43.8312L74.9903 39.7012H52.0391L46.7891 48.8012H69.7403Z" fill="#1EDADC"/>
<path d="M73.8086 54.191H78.1048L75.7161 50.0522L75.4798 49.6322L75.7161 49.221L78.5861 44.251L76.4423 40.5322L71.1836 49.6322L73.8086 54.191Z" fill="#1EDADC"/>
<path d="M67.5962 75.7335H72.8462L84.3262 55.8535H73.8087L64.9624 71.1835L67.5962 75.7335Z" fill="#1EDADC"/>
<path d="M48.4514 56.6934L46.0626 60.8234L45.8264 61.2434H45.3451H39.6051L37.4526 64.9621H47.9701L50.5951 60.4121L48.4514 56.6934Z" fill="#1EDADC"/>
<path d="M67.5964 77.4043L65.4526 81.123H70.2214H70.7026L70.9476 81.5343L73.8089 86.5043H78.1051L72.8464 77.4043H67.5964Z" fill="#1EDADC"/>
<path d="M52.0391 61.2441L49.4141 65.7941L60.8941 85.6741L66.1441 76.5654L63.2741 71.6041L57.2978 61.2441H52.0391Z" fill="#1EDADC"/>
</g>
<defs>
<clipPath id="clip0_635_1829">
<rect width="128" height="128" fill="white"/>
</clipPath>
</defs>
</svg>
