<svg width="128" height="128" viewBox="0 0 128 128" fill="none" xmlns="http://www.w3.org/2000/svg">
<rect width="128" height="128" fill="#0B0A09"/>
<path d="M53.1207 36.0003C36.1838 42.418 34.6323 58.8538 29.7757 66.5297C24.8617 74.2967 13.6039 78.5821 15.1434 82.5404C16.6828 86.4982 27.9541 82.2471 36.8713 84.7726C45.6828 87.2682 57.9774 98.4586 74.9142 92.0406C83.5423 88.7718 89.79 82.0429 92.6629 74.0723C92.9718 73.2168 92.3943 72.3018 91.4776 72.2173C90.9082 72.1645 90.3612 72.4589 90.1044 72.9632C87.5056 78.0723 83.0474 82.2801 77.2134 84.4903C67.5818 88.1395 57.0433 85.2744 50.5714 78.0882C49.1015 76.4565 47.8442 74.599 46.8518 72.5461C46.5789 71.981 46.3194 71.4067 46.0894 70.8125C45.858 70.2185 45.6614 69.6204 45.4808 69.0197C50.5714 66.6776 56.4457 64.1968 63.1055 61.6738C69.6347 59.1997 75.5779 57.1929 80.8685 55.5875C84.4479 54.5023 87.7289 53.5992 90.6912 52.8612C90.9058 52.8084 91.1166 52.7556 91.3269 52.7041C91.7747 52.5945 92.2349 52.8308 92.4005 53.2559L92.4036 53.2639C92.501 53.516 92.5854 53.7695 92.6765 54.023C93.262 55.6588 93.7012 57.3117 93.9908 58.9686C94.118 59.6934 94.9206 60.0882 95.5786 59.7396C98.0106 58.4511 100.235 57.1942 102.222 55.9849C109.628 51.4828 113.734 47.6647 112.891 45.5008C112.05 43.3356 106.411 43.2115 97.8549 44.7562C95.1358 45.2473 92.1214 45.9074 88.8726 46.7247C88.3107 46.8659 87.7419 47.0125 87.167 47.163C84.433 47.8786 81.5495 48.6985 78.5469 49.616C72.9629 51.3231 66.9721 53.3682 60.7871 55.7116C55.0013 57.9046 49.5174 60.178 44.4884 62.4435C44.4269 52.8282 50.3159 43.7383 59.9473 40.0891C65.78 37.879 71.9464 38.0599 77.3418 40.1419C77.874 40.3479 78.4799 40.2053 78.8695 39.7894C79.4922 39.1227 79.3011 38.0612 78.4917 37.6282C70.954 33.6054 61.7491 32.7314 53.1207 36.0003Z" fill="#FAF1E4"/>
</svg>
