<svg width="128" height="128" viewBox="0 0 128 128" fill="none" xmlns="http://www.w3.org/2000/svg">
<g clip-path="url(#clip0_636_1850)">
<path d="M128 0H0V128H128V0Z" fill="#15122E"/>
<path d="M94.8001 55.6103C78.2401 55.6103 61.6801 55.7503 45.1201 55.4703C45.1201 48.8703 47.3701 42.1403 52.1401 37.5103C59.1601 30.3503 70.8001 28.1103 80.0701 32.1803C89.3301 36.1103 95.5101 45.7903 94.8001 55.6203V55.6103Z" fill="#5FC0C1"/>
<path d="M79.3697 95.3203C80.3497 95.3203 81.1897 95.8803 81.1897 96.5803C81.1897 97.2803 80.3497 97.8403 79.3697 97.8403H52.7096C51.7296 97.8403 50.8896 97.2803 50.8896 96.5803C50.8896 95.8803 51.7296 95.3203 52.7096 95.3203H79.3697Z" fill="#E1177C"/>
<path d="M46.9499 97.8402C47.955 97.8402 48.7699 97.0254 48.7699 96.0202C48.7699 95.015 47.955 94.2002 46.9499 94.2002C45.9447 94.2002 45.1299 95.015 45.1299 96.0202C45.1299 97.0254 45.9447 97.8402 46.9499 97.8402Z" fill="#E1177C"/>
<path d="M62.9499 91.1107C63.955 91.1107 64.7699 90.2959 64.7699 89.2907C64.7699 88.2855 63.955 87.4707 62.9499 87.4707C61.9447 87.4707 61.1299 88.2855 61.1299 89.2907C61.1299 90.2959 61.9447 91.1107 62.9499 91.1107Z" fill="#E1177C"/>
<path d="M94.2398 87.46C95.2198 87.46 96.0598 88.3 96.0598 89.28C96.0598 90.26 95.2198 91.1 94.2398 91.1H68.1398C67.1598 91.1 66.3198 90.26 66.3198 89.28C66.3198 88.3 67.1598 87.46 68.1398 87.46H94.2398V87.46Z" fill="#E1177C"/>
<path d="M28.7096 84.3705C29.7148 84.3705 30.5296 83.5556 30.5296 82.5505C30.5296 81.5453 29.7148 80.7305 28.7096 80.7305C27.7045 80.7305 26.8896 81.5453 26.8896 82.5505C26.8896 83.5556 27.7045 84.3705 28.7096 84.3705Z" fill="#E1177C"/>
<path d="M54.6699 80.7305C55.6499 80.7305 56.4899 81.5705 56.4899 82.5505C56.4899 83.5305 55.6499 84.3705 54.6699 84.3705H33.1999C32.2199 84.3705 31.3799 83.5305 31.3799 82.5505C31.3799 81.5705 32.2199 80.7305 33.1999 80.7305H54.6699Z" fill="#E1177C"/>
<path d="M102.8 80.7305C103.78 80.7305 104.62 81.5705 104.62 82.5505C104.62 83.5305 103.78 84.3705 102.8 84.3705H60.1398C59.1598 84.3705 58.3198 83.5305 58.3198 82.5505C58.3198 81.5705 59.1598 80.7305 60.1398 80.7305H102.8Z" fill="#E1177C"/>
<path d="M94.7997 73.9902C95.7797 73.9902 96.6197 74.8302 96.6197 75.8102C96.6197 76.7902 95.7797 77.6302 94.7997 77.6302H42.4596C41.4796 77.6302 40.6396 76.7902 40.6396 75.8102C40.6396 74.8302 41.4796 73.9902 42.4596 73.9902H94.7997V73.9902Z" fill="#E1177C"/>
<path d="M36.7096 77.6302C37.7148 77.6302 38.5296 76.8154 38.5296 75.8102C38.5296 74.8051 37.7148 73.9902 36.7096 73.9902C35.7045 73.9902 34.8896 74.8051 34.8896 75.8102C34.8896 76.8154 35.7045 77.6302 36.7096 77.6302Z" fill="#E1177C"/>
<path d="M83.8599 67.3906C84.8399 67.3906 85.6799 68.2306 85.6799 69.2106C85.6799 70.1906 84.8399 71.0306 83.8599 71.0306H31.5099C30.5299 71.0306 29.6899 70.1906 29.6899 69.2106C29.6899 68.2306 30.5299 67.3906 31.5099 67.3906H83.8499H83.8599Z" fill="#E1177C"/>
<path d="M25.1999 71.0404C26.205 71.0404 27.0199 70.2255 27.0199 69.2204C27.0199 68.2152 26.205 67.4004 25.1999 67.4004C24.1947 67.4004 23.3799 68.2152 23.3799 69.2204C23.3799 70.2255 24.1947 71.0404 25.1999 71.0404Z" fill="#E1177C"/>
<path d="M36.7096 64.3002C37.7148 64.3002 38.5296 63.4853 38.5296 62.4802C38.5296 61.475 37.7148 60.6602 36.7096 60.6602C35.7045 60.6602 34.8896 61.475 34.8896 62.4802C34.8896 63.4853 35.7045 64.3002 36.7096 64.3002Z" fill="#E1177C"/>
<path d="M99.8501 60.6602C100.83 60.6602 101.67 61.5002 101.67 62.4802C101.67 63.4602 100.83 64.3002 99.8501 64.3002H42.8801C41.9001 64.3002 41.0601 63.4602 41.0601 62.4802C41.0601 61.5002 41.9001 60.6602 42.8801 60.6602H99.8501Z" fill="#E1177C"/>
</g>
<defs>
<clipPath id="clip0_636_1850">
<rect width="128" height="128" fill="white"/>
</clipPath>
</defs>
</svg>
