<svg width="128" height="128" viewBox="0 0 128 128" fill="none" xmlns="http://www.w3.org/2000/svg">
<rect width="128" height="128" fill="#008CFF"/>
<path d="M87.2832 73.3152C84.3342 71.5957 81.0076 71.0999 77.712 70.9916C74.9475 70.8986 70.8281 69.117 70.8281 64.0203C70.8438 62.1846 71.5728 60.4277 72.8589 59.125C74.1453 57.8226 75.887 57.0777 77.712 57.0494C81.0076 56.9332 84.3342 56.4375 87.2832 54.7258C89.9313 53.1834 92.1292 50.9673 93.6569 48.3002C95.1841 45.633 95.9866 42.6086 95.9847 39.5306C95.9823 36.4526 95.175 33.4294 93.6435 30.7645C92.1123 28.0997 89.9112 25.8869 87.2608 24.3485C84.6104 22.8101 81.6044 22.0002 78.5444 22C75.4845 21.9999 72.4781 22.8095 69.8277 24.3477C67.1773 25.8859 64.9758 28.0984 63.4442 30.7631C61.9127 33.4279 61.105 36.451 61.1026 39.529C61.1026 42.9293 62.3037 46.0585 63.8439 48.9631C65.1296 51.4029 65.7842 55.9339 61.3568 58.4978C59.7564 59.3935 57.8709 59.6227 56.1046 59.1364C54.3382 58.6497 52.8318 57.4863 51.9085 55.8954C50.176 53.107 48.0584 50.4734 45.1554 48.7927C42.504 47.2543 39.4967 46.4448 36.4357 46.4458C33.3748 46.4467 30.368 47.2579 27.7175 48.7979C25.0669 50.3379 22.866 52.5525 21.3358 55.2192C19.8056 57.8858 19 60.9105 19 63.9893C19 67.0685 19.8056 70.0932 21.3358 72.7599C22.866 75.4265 25.0669 77.6411 27.7175 79.1809C30.368 80.7211 33.3748 81.5324 36.4357 81.5331C39.4967 81.5339 42.504 80.7246 45.1554 79.1864C48.0815 77.4821 50.176 74.8719 51.9085 72.0836C53.333 69.7599 56.8829 66.8785 61.3568 69.4809C62.9281 70.428 64.0678 71.9568 64.5316 73.7392C64.995 75.5219 64.7452 77.4162 63.836 79.016C62.2962 81.9206 61.1026 85.0496 61.1026 88.4499C61.1026 91.5303 61.9091 94.5565 63.4403 97.2244C64.9714 99.8922 67.1737 102.108 69.8257 103.648C72.4777 105.188 75.4861 106 78.5488 106C81.6111 106 84.6199 105.19 87.2722 103.65C89.9246 102.111 92.1277 99.8961 93.6596 97.2287C95.1915 94.5616 95.9988 91.5354 96 88.455C96.0012 85.3746 95.1963 82.348 93.6659 79.6797C92.1359 77.0111 89.9348 74.7946 87.2832 73.2532V73.3152Z" fill="white"/>
</svg>
