<svg width="128" height="128" viewBox="0 0 128 128" fill="none" xmlns="http://www.w3.org/2000/svg">
<rect width="128" height="128" fill="black"/>
<path d="M101.614 83.0363L89.2327 96.1011C88.9636 96.3849 88.6379 96.6112 88.2761 96.7658C87.9142 96.9205 87.5238 97.0002 87.1294 97H28.4373C28.1573 97 27.8833 96.9195 27.6492 96.7684C27.415 96.6173 27.2307 96.4022 27.1191 96.1494C27.0075 95.8967 26.9733 95.6175 27.0208 95.3459C27.0683 95.0743 27.1954 94.8223 27.3865 94.6208L39.7768 81.556C40.0452 81.2729 40.3698 81.0471 40.7305 80.8925C41.0912 80.7379 41.4803 80.6578 41.8738 80.6571H100.563C100.843 80.6571 101.117 80.7377 101.351 80.8887C101.585 81.0399 101.769 81.255 101.881 81.5077C101.993 81.7604 102.027 82.0397 101.979 82.3113C101.932 82.5828 101.805 82.8348 101.614 83.0363ZM89.2327 56.7274C88.9636 56.4436 88.6379 56.2173 88.2761 56.0627C87.9142 55.9081 87.5238 55.8284 87.1294 55.8286H28.4373C28.1573 55.8286 27.8833 55.9091 27.6492 56.0602C27.415 56.2113 27.2307 56.4264 27.1191 56.6791C27.0075 56.9319 26.9733 57.2111 27.0208 57.4827C27.0683 57.7542 27.1954 58.0062 27.3865 58.2078L39.7768 71.2726C40.0452 71.5557 40.3698 71.7814 40.7305 71.9361C41.0912 72.0906 41.4803 72.1708 41.8738 72.1714H100.563C100.843 72.1714 101.117 72.0909 101.351 71.9398C101.585 71.7887 101.769 71.5736 101.881 71.3209C101.993 71.0681 102.027 70.7889 101.979 70.5173C101.932 70.2458 101.805 69.9938 101.614 69.7922L89.2327 56.7274ZM28.4373 47.3429H87.1294C87.5238 47.343 87.9142 47.2634 88.2761 47.1087C88.6379 46.9541 88.9636 46.7278 89.2327 46.444L101.614 33.3791C101.805 33.1777 101.932 32.9257 101.979 32.6541C102.027 32.3826 101.993 32.1033 101.881 31.8506C101.769 31.5978 101.585 31.3827 101.351 31.2316C101.117 31.0805 100.843 31 100.563 31H41.8738C41.4803 31.0007 41.0912 31.0808 40.7305 31.2354C40.3698 31.39 40.0452 31.6158 39.7768 31.8989L27.3896 44.9637C27.1988 45.1649 27.0717 45.4167 27.0241 45.6879C26.9765 45.9592 27.0104 46.2383 27.1217 46.4909C27.2329 46.7435 27.4166 46.9586 27.6503 47.1099C27.8841 47.2613 28.1576 47.3422 28.4373 47.3429Z" fill="url(#paint0_linear_549_1848)"/>
<defs>
<linearGradient id="paint0_linear_549_1848" x1="33.3309" y1="98.573" x2="93.7658" y2="29.3329" gradientUnits="userSpaceOnUse">
<stop offset="0.08" stop-color="#9945FF"/>
<stop offset="0.3" stop-color="#8752F3"/>
<stop offset="0.5" stop-color="#5497D5"/>
<stop offset="0.6" stop-color="#43B4CA"/>
<stop offset="0.72" stop-color="#28E0B9"/>
<stop offset="0.97" stop-color="#19FB9B"/>
</linearGradient>
</defs>
</svg>
